<svg width="12" height="12" viewBox="0 0 12 12" fill="none" xmlns="http://www.w3.org/2000/svg">
<path d="M6.46824 9.33504L11.8083 3.99489C11.9319 3.87138 12 3.7065 12 3.5307C12 3.3549 11.9319 3.19002 11.8083 3.06651L11.4151 2.67324C11.1589 2.41734 10.7425 2.41734 10.4867 2.67324L6.00249 7.1575L1.51326 2.66827C1.38965 2.54476 1.22487 2.47656 1.04916 2.47656C0.873261 2.47656 0.708482 2.54476 0.584775 2.66827L0.191705 3.06153C0.0680967 3.18514 8.11139e-08 3.34992 8.11139e-08 3.52572C8.11139e-08 3.70153 0.0680967 3.8664 0.191705 3.98992L5.53664 9.33504C5.66064 9.45885 5.8262 9.52685 6.0022 9.52646C6.17888 9.52685 6.34434 9.45885 6.46824 9.33504Z" fill="#0B101D"/>
</svg>
