<svg width="60" height="60" viewBox="0 0 60 60" fill="none" xmlns="http://www.w3.org/2000/svg">
<circle cx="30" cy="30" r="29.5" fill="#F0F2F5" stroke="#D3D5D8"/>
<path fill-rule="evenodd" clip-rule="evenodd" d="M21.3496 20.0556C21.0207 20.1379 20.7745 20.2784 20.5266 20.5255C20.2712 20.7799 20.1168 21.0601 20.0456 21.3983C19.9848 21.6875 19.9848 27.7256 20.0456 28.0148C20.1863 28.6839 20.7276 29.2248 21.4003 29.3688C21.6879 29.4303 27.7245 29.431 28.0168 29.3695C28.6859 29.2288 29.2268 28.6876 29.3708 28.0148C29.4323 27.7272 29.433 21.6906 29.3715 21.3983C29.2304 20.7276 28.6875 20.1847 28.0168 20.0436C27.7071 19.9785 21.614 19.9894 21.3496 20.0556ZM31.9343 20.0556C31.6054 20.1379 31.3593 20.2784 31.1113 20.5255C30.8559 20.7799 30.7015 21.0601 30.6304 21.3983C30.5695 21.6875 30.5695 27.7256 30.6304 28.0148C30.771 28.6839 31.3123 29.2248 31.985 29.3688C32.2726 29.4303 38.3092 29.431 38.6015 29.3695C39.2722 29.2284 39.8152 28.6855 39.9562 28.0148C40.0171 27.7256 40.0171 21.6875 39.9562 21.3983C39.8152 20.7276 39.2722 20.1847 38.6015 20.0436C38.2919 19.9785 32.1987 19.9894 31.9343 20.0556ZM25.0025 22.4613C25.2717 22.5986 25.314 22.7389 25.314 23.4942V24.1402H25.96C26.7153 24.1402 26.8556 24.1825 26.993 24.4517C27.095 24.6518 27.0924 24.8151 26.984 25.008C26.8341 25.2748 26.7088 25.312 25.96 25.312H25.314V25.9609C25.314 26.5608 25.3074 26.6216 25.2264 26.7656C25.065 27.0528 24.735 27.1443 24.4462 26.982C24.1794 26.8321 24.1422 26.7068 24.1422 25.958V25.312H23.4933C22.8934 25.312 22.8327 25.3054 22.6886 25.2244C22.5147 25.1266 22.3846 24.9135 22.3846 24.7261C22.3846 24.5387 22.5147 24.3256 22.6886 24.2278C22.8327 24.1468 22.8934 24.1402 23.4933 24.1402H24.1422L24.1439 23.486C24.1458 22.7381 24.176 22.6345 24.4388 22.4754C24.6258 22.3622 24.7998 22.3578 25.0025 22.4613ZM37.3449 24.2189C37.5191 24.3078 37.6563 24.5325 37.6563 24.729C37.6563 24.9107 37.5044 25.152 37.3359 25.2379C37.1992 25.3076 37.0792 25.312 35.2904 25.312C33.3941 25.312 33.3898 25.3118 33.2343 25.2244C32.8412 25.0035 32.8372 24.4689 33.2269 24.233L33.3795 24.1406L35.2851 24.1404C37.1181 24.1402 37.1966 24.1432 37.3449 24.2189ZM21.3496 30.6403C21.0207 30.7226 20.7745 30.8631 20.5266 31.1102C20.2712 31.3646 20.1168 31.6448 20.0456 31.983C19.9848 32.2722 19.9848 38.3104 20.0456 38.5995C20.1863 39.2686 20.7276 39.8095 21.4003 39.9535C21.6879 40.015 27.7245 40.0157 28.0168 39.9542C28.6875 39.8132 29.2304 39.2702 29.3715 38.5995C29.4324 38.3104 29.4324 32.2722 29.3715 31.983C29.2304 31.3123 28.6875 30.7694 28.0168 30.6284C27.7071 30.5632 21.614 30.5741 21.3496 30.6403ZM31.9343 30.6403C31.6054 30.7226 31.3593 30.8631 31.1113 31.1102C30.8559 31.3646 30.7015 31.6448 30.6304 31.983C30.5695 32.2722 30.5695 38.3104 30.6304 38.5995C30.771 39.2686 31.3123 39.8095 31.985 39.9535C32.2726 40.015 38.3092 40.0157 38.6015 39.9542C39.2722 39.8132 39.8152 39.2702 39.9562 38.5995C40.0171 38.3104 40.0171 32.2722 39.9562 31.983C39.8152 31.3123 39.2722 30.7694 38.6015 30.6284C38.2919 30.5632 32.1987 30.5741 31.9343 30.6403ZM23.7041 33.4961C23.7873 33.5306 24.0365 33.7426 24.288 33.9928L24.7267 34.4293L25.1863 33.9759C25.7051 33.4641 25.8513 33.3857 26.1306 33.4694C26.3164 33.5251 26.5118 33.7373 26.5463 33.9209C26.5934 34.1724 26.5047 34.3239 26.0236 34.8128L25.572 35.2718L26.0236 35.7307C26.5047 36.2196 26.5934 36.3711 26.5463 36.6227C26.5118 36.8062 26.3164 37.0184 26.1306 37.0741C25.8514 37.1578 25.7051 37.0794 25.187 36.5684L24.7281 36.1157L24.2692 36.5672C23.7802 37.0483 23.6287 37.1371 23.3772 37.0899C23.1936 37.0555 22.9814 36.8601 22.9257 36.6742C22.8421 36.395 22.9205 36.2488 23.4315 35.7307L23.8842 35.2718L23.4326 34.8128C22.9526 34.325 22.8628 34.1722 22.9096 33.9229C22.9553 33.6791 23.2293 33.4417 23.4697 33.4376C23.5188 33.4367 23.6242 33.4631 23.7041 33.4961ZM37.3449 33.5928C37.5191 33.6817 37.6563 33.9065 37.6563 34.1029C37.6563 34.2846 37.5044 34.5259 37.3359 34.6118C37.1992 34.6816 37.0792 34.6859 35.2904 34.6859C33.3941 34.6859 33.3898 34.6857 33.2343 34.5983C32.8412 34.3774 32.8372 33.8428 33.2269 33.6069L33.3795 33.5145L35.2851 33.5144C37.1181 33.5142 37.1966 33.5172 37.3449 33.5928ZM37.3449 35.9363C37.5191 36.0252 37.6563 36.2499 37.6563 36.4464C37.6563 36.6281 37.5044 36.8694 37.3359 36.9553C37.1992 37.025 37.0792 37.0294 35.2904 37.0294C33.3941 37.0294 33.3898 37.0292 33.2343 36.9418C32.8412 36.7209 32.8372 36.1863 33.2269 35.9504L33.3795 35.858L35.2851 35.8578C37.1181 35.8576 37.1966 35.8606 37.3449 35.9363Z" fill="#5B92EA"/>
</svg>
