<svg width="56" height="56" viewBox="0 0 56 56" fill="none" xmlns="http://www.w3.org/2000/svg">
<circle cx="28" cy="28" r="28" fill="#5B92EA"/>
<path d="M34.7162 30.5022C33.7366 30.5022 32.7747 30.349 31.8633 30.0478C31.4167 29.8954 30.8676 30.0352 30.595 30.3151L28.796 31.6732C26.7096 30.5595 25.4245 29.2748 24.326 27.204L25.6441 25.4519C25.9865 25.1099 26.1094 24.6103 25.9622 24.1415C25.6597 23.2253 25.506 22.2639 25.506 21.2839C25.5061 20.576 24.9301 20 24.2222 20H21.2839C20.576 20 20 20.576 20 21.2839C20 29.3985 26.6016 36 34.7162 36C35.4241 36 36 35.424 36 34.7161V31.786C36 31.0781 35.424 30.5022 34.7162 30.5022Z" fill="white"/>
</svg>
