<svg width="16" height="16" viewBox="0 0 16 16" fill="none" xmlns="http://www.w3.org/2000/svg">
<path d="M13.5975 10.0838C12.7811 10.0838 11.9796 9.95617 11.2201 9.70516C10.8479 9.57821 10.3903 9.69467 10.1632 9.92797L8.66399 11.0597C6.92534 10.1316 5.85437 9.06099 4.93895 7.3354L6.03739 5.87526C6.32277 5.59026 6.42513 5.17394 6.30249 4.78332C6.05041 4.01978 5.92235 3.21863 5.92235 2.40196C5.92239 1.812 5.44242 1.33203 4.85249 1.33203H2.40388C1.81395 1.33203 1.33398 1.812 1.33398 2.40193C1.33398 9.16408 6.83531 14.6654 13.5975 14.6654C14.1874 14.6654 14.6674 14.1854 14.6674 13.5955V11.1537C14.6673 10.5638 14.1874 10.0838 13.5975 10.0838Z" fill="#0B101D"/>
</svg>
