<svg width="60" height="60" viewBox="0 0 60 60" fill="none" xmlns="http://www.w3.org/2000/svg">
<circle cx="30" cy="30" r="29.5" fill="#F0F2F5" stroke="#D3D5D8"/>
<path d="M36.7162 32.5022C35.7366 32.5022 34.7748 32.349 33.8633 32.0478C33.4167 31.8954 32.8676 32.0352 32.595 32.3151L30.796 33.6732C28.7096 32.5595 27.4245 31.2748 26.326 29.204L27.6441 27.4519C27.9865 27.1099 28.1094 26.6103 27.9622 26.1415C27.6597 25.2253 27.506 24.2639 27.506 23.2839C27.5061 22.576 26.9301 22 26.2222 22H23.2839C22.576 22 22 22.576 22 23.2839C22 31.3985 28.6016 38 36.7162 38C37.4241 38 38 37.424 38 36.7161V33.786C38 33.0781 37.424 32.5022 36.7162 32.5022Z" fill="#5B92EA"/>
</svg>
