<svg width="44" height="44" viewBox="0 0 44 44" fill="none" xmlns="http://www.w3.org/2000/svg">
<circle cx="22" cy="22" r="22" fill="#F0F2F5"/>
<g clip-path="url(#clip0_157_4454)">
<path d="M23.0994 22.0117L27.772 17.339C28.076 17.035 28.076 16.5436 27.772 16.2397C27.468 15.9357 26.9766 15.9357 26.6727 16.2397L21.9999 20.9124L17.3274 16.2397C17.0233 15.9357 16.532 15.9357 16.2281 16.2397C15.924 16.5436 15.924 17.035 16.2281 17.339L20.9006 22.0117L16.2281 26.6844C15.924 26.9883 15.924 27.4798 16.2281 27.7837C16.3795 27.9353 16.5787 28.0115 16.7777 28.0115C16.9767 28.0115 17.1758 27.9353 17.3274 27.7837L21.9999 23.111L26.6727 27.7837C26.8243 27.9353 27.0233 28.0115 27.2223 28.0115C27.4213 28.0115 27.6204 27.9353 27.772 27.7837C28.076 27.4798 28.076 26.9883 27.772 26.6844L23.0994 22.0117Z" fill="#0B101D"/>
</g>
<defs>
<clipPath id="clip0_157_4454">
<rect width="12" height="12" fill="white" transform="translate(16 16)"/>
</clipPath>
</defs>
</svg>
