<svg width="28" height="28" viewBox="0 0 28 28" fill="none" xmlns="http://www.w3.org/2000/svg">
<path d="M15.4658 14.0001L21.6959 7.76972C22.1014 7.36446 22.1014 6.70921 21.6959 6.30395C21.2907 5.89868 20.6354 5.89868 20.2302 6.30395L13.9999 12.5343L7.76983 6.30395C7.36438 5.89868 6.70934 5.89868 6.30408 6.30395C5.89864 6.70921 5.89864 7.36446 6.30408 7.76972L12.5342 14.0001L6.30408 20.2305C5.89864 20.6358 5.89864 21.291 6.30408 21.6963C6.50604 21.8984 6.77159 22 7.03695 22C7.30231 22 7.56767 21.8984 7.76983 21.6963L13.9999 15.4659L20.2302 21.6963C20.4323 21.8984 20.6977 22 20.963 22C21.2284 22 21.4938 21.8984 21.6959 21.6963C22.1014 21.291 22.1014 20.6358 21.6959 20.2305L15.4658 14.0001Z" fill="#0B101D"/>
</svg>
