<svg width="60" height="60" viewBox="0 0 60 60" fill="none" xmlns="http://www.w3.org/2000/svg">
<circle cx="30" cy="30" r="29.5" fill="#F0F2F5" stroke="#D3D5D8"/>
<path fill-rule="evenodd" clip-rule="evenodd" d="M23.6943 20.0406C22.9484 20.1959 22.34 20.7407 22.089 21.4784L22 21.74V30.0098V38.2796L22.088 38.538C22.3085 39.1857 22.801 39.6866 23.4367 39.9096L23.6943 40H29.4897H35.285L35.5426 39.9096C36.1726 39.6886 36.6433 39.2145 36.8925 38.5501L36.9794 38.3187L36.9897 32.093L37 25.8673L34.506 25.8564L32.0119 25.8456L31.8001 25.7429C31.4861 25.5907 31.2822 25.3904 31.1375 25.0921L31.0107 24.8307L31 22.4153L30.9892 20L27.4188 20.0043C25.455 20.0066 23.779 20.023 23.6943 20.0406ZM32.1467 22.3988C32.1467 24.3198 32.1537 24.5763 32.2072 24.6307C32.2608 24.6851 32.522 24.6921 34.4998 24.6921H36.7318L36.6859 24.6041C36.6607 24.5557 36.5976 24.4593 36.5458 24.3899C36.4013 24.1962 32.5896 20.5482 32.354 20.3781L32.1467 20.2284V22.3988ZM33.8805 27.8988C34.0523 27.9878 34.1876 28.2129 34.1876 28.4095C34.1876 28.5914 34.0378 28.833 33.8717 28.919C33.7337 28.9905 33.5735 28.9932 29.3713 28.9932H25.014L24.8604 28.9055C24.4729 28.6843 24.469 28.1491 24.8531 27.913L25.0036 27.8205L29.3661 27.8203C33.6625 27.8201 33.7308 27.8213 33.8805 27.8988ZM33.8805 31.0269C34.0523 31.1159 34.1876 31.3409 34.1876 31.5376C34.1876 31.7195 34.0378 31.961 33.8717 32.047C33.7337 32.1186 33.5735 32.1212 29.3713 32.1212H25.014L24.8604 32.0335C24.4729 31.8124 24.469 31.2772 24.8531 31.0411L25.0036 30.9486L29.3661 30.9484C33.6625 30.9482 33.7308 30.9494 33.8805 31.0269ZM28.2427 34.1764C28.4335 34.3212 28.5033 34.4513 28.5033 34.6628C28.5033 34.8742 28.4335 35.0043 28.2427 35.1491C28.14 35.2269 28.083 35.2301 26.5774 35.2408L25.0186 35.2518L24.8627 35.1629C24.4729 34.9404 24.4678 34.4071 24.8531 34.1684L25.0036 34.0752L26.57 34.0855C28.0837 34.0954 28.14 34.0985 28.2427 34.1764Z" fill="#5B92EA"/>
</svg>
