<svg width="60" height="60" viewBox="0 0 60 60" fill="none" xmlns="http://www.w3.org/2000/svg">
<circle cx="30" cy="30" r="30" fill="#A2AEC0"/>
<path fill-rule="evenodd" clip-rule="evenodd" d="M39.5899 18.066C39.4584 18.113 39.2684 18.2178 39.1677 18.2988C39.067 18.3799 38.1742 19.258 37.1838 20.2502C35.7481 21.6885 35.4009 22.0596 35.4714 22.0805C35.5201 22.0949 36.3922 22.3625 37.4094 22.6753L39.2589 23.2439L40.5417 21.9623C41.6825 20.8223 41.8352 20.6521 41.922 20.4226C42.0423 20.105 42.0225 19.7378 41.8688 19.4341C41.7152 19.1305 40.87 18.2874 40.5745 18.1427C40.2501 17.984 39.8965 17.9565 39.5899 18.066ZM34.164 23.2728C33.8867 23.5509 33.6599 23.7923 33.6599 23.809C33.6599 23.8476 33.7173 23.8688 35.709 24.5669L37.3595 25.1453L37.9509 24.5526L38.5423 23.9599L36.6523 23.3797C35.6128 23.0607 34.7411 22.7923 34.7152 22.7834C34.6893 22.7745 34.4413 22.9947 34.164 23.2728ZM32.2868 25.15L31.6892 25.7489L32.1353 26.1931L32.5815 26.6374L31.3999 27.8196L30.2185 29.0017L30.0274 28.8382C28.827 27.8109 27.6404 27.2055 26.1772 26.8738C25.8933 26.8095 25.6274 26.7566 25.5861 26.7564C25.5278 26.7561 25.4991 26.8419 25.457 27.143C25.4273 27.3559 25.403 27.5543 25.403 27.5839C25.403 27.6136 25.5449 27.6623 25.7198 27.6927C27.7703 28.0487 29.7072 29.362 30.8608 31.1784C31.3202 31.9018 31.7379 32.9546 31.9047 33.8096L31.9857 34.2248L32.1543 34.1981C32.247 34.1835 32.445 34.1571 32.5945 34.1397L32.8661 34.108L32.8351 33.8919C32.7762 33.4816 32.5428 32.6304 32.3689 32.192C32.0385 31.3588 31.5698 30.5481 31.0455 29.9027L30.8387 29.6482L32.0259 28.4603L33.2131 27.2724L33.7182 27.776L34.2233 28.2795L35.4405 27.063L36.6577 25.8465L34.8187 25.1996C33.8072 24.8438 32.9582 24.5523 32.932 24.5519C32.9059 24.5514 32.6155 24.8206 32.2868 25.15ZM24.0569 28.2122C22.2492 28.3842 20.5562 29.3174 19.4221 30.7671C17.355 33.4093 17.5623 37.1716 19.9077 39.5794C21.0569 40.7591 22.4693 41.4254 24.1577 41.5841C25.0702 41.6699 26.1005 41.5388 26.9658 41.2267C29.8212 40.1969 31.6285 37.4189 31.4051 34.4029C31.244 32.2285 30.0324 30.2636 28.1475 29.1198C27.5198 28.7389 26.4876 28.3696 25.7549 28.2637C25.2377 28.189 24.5268 28.1674 24.0569 28.2122ZM25.2502 32.7375C26.473 33.0258 27.2155 34.353 26.838 35.5757C26.351 37.1533 24.3221 37.6454 23.1475 36.4708C22.7073 36.0307 22.4955 35.5188 22.4955 34.8955C22.4955 34.2655 22.7111 33.7508 23.1585 33.313C23.7286 32.7552 24.4654 32.5525 25.2502 32.7375Z" fill="white"/>
</svg>
