<svg width="60" height="60" viewBox="0 0 60 60" fill="none" xmlns="http://www.w3.org/2000/svg">
<circle cx="30" cy="30" r="30" fill="#2E4C88"/>
<path fill-rule="evenodd" clip-rule="evenodd" d="M20.6138 22.8974C20.2959 23.0653 20.25 23.2303 20.25 24.2052V25.0508H19.7559C19.3533 25.0508 19.2277 25.0683 19.0769 25.1451C18.8689 25.2513 18.7031 25.5213 18.7031 25.7539C18.7031 25.9865 18.8689 26.2565 19.0769 26.3627C19.2534 26.4527 19.3501 26.457 21.1973 26.4571C23.3191 26.4572 23.3357 26.4592 23.5438 26.7433C23.7354 27.0049 23.6304 27.4693 23.3287 27.6943C23.1993 27.7908 23.1435 27.7935 20.8443 27.8164C18.7093 27.8377 18.4782 27.8475 18.3403 27.9229C18.1657 28.0182 18 28.3088 18 28.5195C18 28.7521 18.1658 29.0222 18.3738 29.1283C18.554 29.2202 18.6447 29.2227 21.877 29.2234L25.1953 29.2242L25.3779 29.3289C25.8502 29.5996 25.8402 30.2899 25.3606 30.5345C25.1804 30.6265 25.0905 30.6289 21.8672 30.6289C18.6439 30.6289 18.554 30.6313 18.3738 30.7233C18.1658 30.8294 18 31.0994 18 31.332C18 31.5646 18.1658 31.8347 18.3738 31.9408C18.5389 32.025 18.6494 32.0352 19.4044 32.0352H20.25V33.162C20.25 34.8102 20.2498 34.81 21.5535 34.8477L22.3647 34.8711L22.4675 35.1758C22.6097 35.5974 22.791 35.8887 23.109 36.2066C24.1613 37.259 25.8541 37.2591 26.9062 36.207C27.2245 35.8888 27.4058 35.5976 27.5482 35.1758L27.6511 34.8711H31.2188H34.7864L34.8893 35.1758C35.0317 35.5975 35.213 35.8888 35.5308 36.2066C36.5832 37.259 38.276 37.2591 39.3281 36.207C39.6465 35.8887 39.8277 35.5975 39.97 35.1758L40.0728 34.8711L40.7903 34.8477C41.6136 34.8207 41.7524 34.7742 41.9058 34.4735C41.9964 34.2959 42 34.2002 42 31.9531C42 29.4117 41.9916 29.3142 41.7309 28.8353C41.5659 28.532 41.1759 28.181 40.8098 28.0064C40.2246 27.7271 40.1858 27.7241 37.0845 27.7234L34.2549 27.7227L34.068 27.6176C33.6972 27.4092 33.7031 27.4517 33.7031 24.9823V22.8008L27.2461 22.8028C20.9099 22.8049 20.7858 22.8066 20.6138 22.8974ZM35.1094 24.6289V26.3164H37.0312C38.0883 26.3164 38.9531 26.3028 38.9531 26.2861C38.9531 26.2266 38.3648 25.3054 38.0906 24.9355C37.3582 23.9476 36.6154 23.4024 35.5405 23.0639C35.3265 22.9965 35.142 22.9414 35.1304 22.9414C35.1188 22.9414 35.1094 23.7008 35.1094 24.6289ZM25.549 33.1356C25.9778 33.3516 26.2969 33.8521 26.2969 34.3086C26.2969 34.7632 25.9777 35.2657 25.5533 35.4793C24.984 35.7659 24.1649 35.4769 23.8465 34.8771C23.7003 34.6017 23.7003 34.0155 23.8465 33.7401C23.9844 33.4803 24.3412 33.1743 24.6051 33.0895C24.8735 33.0033 25.3306 33.0257 25.549 33.1356ZM37.9709 33.1356C38.3997 33.3516 38.7188 33.8521 38.7188 34.3086C38.7188 34.7632 38.3996 35.2657 37.9752 35.4793C37.4058 35.7659 36.5867 35.4769 36.2684 34.8771C36.1222 34.6017 36.1222 34.0155 36.2684 33.7401C36.4063 33.4803 36.7631 33.1743 37.027 33.0895C37.2954 33.0033 37.7525 33.0257 37.9709 33.1356Z" fill="white"/>
</svg>
