<svg width="60" height="60" viewBox="0 0 60 60" fill="none" xmlns="http://www.w3.org/2000/svg">
<circle cx="30" cy="30" r="29.5" fill="#F0F2F5" stroke="#D3D5D8"/>
<path fill-rule="evenodd" clip-rule="evenodd" d="M22.1782 24.0805C21.9133 24.2204 21.875 24.358 21.875 25.1703V25.875H21.4633C21.1277 25.875 21.023 25.8896 20.8974 25.9536C20.7241 26.0421 20.5859 26.2671 20.5859 26.4609C20.5859 26.6548 20.7241 26.8798 20.8974 26.9682C21.0445 27.0433 21.1251 27.0469 22.6645 27.047C24.4326 27.047 24.4464 27.0487 24.6198 27.2854C24.7795 27.5034 24.692 27.8904 24.4405 28.0779C24.3328 28.1583 24.2863 28.1606 22.3702 28.1797C20.5911 28.1974 20.3985 28.2056 20.2836 28.2684C20.1381 28.3479 20 28.59 20 28.7656C20 28.9595 20.1382 29.1845 20.3115 29.2729C20.4616 29.3495 20.5372 29.3516 23.2309 29.3522L25.9961 29.3529L26.1483 29.4401C26.5418 29.6657 26.5335 30.2409 26.1338 30.4448C25.9836 30.5214 25.9087 30.5234 23.2227 30.5234C20.5366 30.5234 20.4617 30.5255 20.3115 30.6021C20.1382 30.6905 20 30.9155 20 31.1094C20 31.3032 20.1382 31.5282 20.3115 31.6167C20.4491 31.6869 20.5412 31.6953 21.1703 31.6953H21.875V32.6344C21.875 34.0079 21.8748 34.0077 22.9612 34.0391L23.6372 34.0586L23.7229 34.3125C23.8414 34.6638 23.9925 34.9066 24.2575 35.1715C25.1344 36.0485 26.5451 36.0486 27.4219 35.1719C27.6871 34.9067 27.8381 34.664 27.9568 34.3125L28.0426 34.0586H31.0156H33.9886L34.0744 34.3125C34.1931 34.6639 34.3442 34.9067 34.609 35.1715C35.486 36.0485 36.8967 36.0486 37.7734 35.1719C38.0387 34.9066 38.1898 34.6639 38.3083 34.3125L38.394 34.0586L38.9919 34.0391C39.678 34.0166 39.7937 33.9779 39.9215 33.7273C39.997 33.5793 40 33.4995 40 31.627C40 29.5091 39.993 29.4279 39.7758 29.0287C39.6382 28.7761 39.3132 28.4836 39.0082 28.338C38.5205 28.1052 38.4882 28.1028 35.9037 28.1021L33.5458 28.1016L33.39 28.014C33.081 27.8404 33.0859 27.8758 33.0859 25.818V24L27.7051 24.0017C22.4249 24.0034 22.3215 24.0049 22.1782 24.0805ZM34.2578 25.5234V26.9297H35.8594C36.7402 26.9297 37.4609 26.9183 37.4609 26.9045C37.4609 26.8548 36.9707 26.0871 36.7421 25.7789C36.1319 24.9557 35.5128 24.5014 34.6171 24.2193C34.4387 24.1631 34.285 24.1172 34.2753 24.1172C34.2657 24.1172 34.2578 24.75 34.2578 25.5234ZM26.2908 32.6124C26.6482 32.7924 26.9141 33.2094 26.9141 33.5898C26.9141 33.9687 26.6481 34.3874 26.2944 34.5654C25.82 34.8043 25.1374 34.5634 24.8721 34.0636C24.7503 33.8341 24.7503 33.3456 24.8721 33.1161C24.987 32.8996 25.2843 32.6446 25.5043 32.5739C25.7279 32.5021 26.1089 32.5207 26.2908 32.6124ZM36.6424 32.6124C36.9997 32.7924 37.2656 33.2094 37.2656 33.5898C37.2656 33.9687 36.9996 34.3874 36.646 34.5654C36.1715 34.8043 35.4889 34.5634 35.2237 34.0636C35.1018 33.8341 35.1018 33.3456 35.2237 33.1161C35.3386 32.8996 35.6359 32.6446 35.8558 32.5739C36.0795 32.5021 36.4604 32.5207 36.6424 32.6124Z" fill="#5B92EA"/>
</svg>
