<svg width="60" height="60" viewBox="0 0 60 60" fill="none" xmlns="http://www.w3.org/2000/svg">
<circle cx="30" cy="30" r="30" fill="#70A2F1"/>
<path fill-rule="evenodd" clip-rule="evenodd" d="M29.1311 20.0584C28.4109 20.2168 27.7111 20.5948 27.1819 21.1112C26.6086 21.6707 26.2692 22.2412 26.0442 23.0233C25.9559 23.3304 25.9395 23.4984 25.9423 24.0701C25.9451 24.6682 25.9608 24.8014 26.071 25.1643C26.3679 26.1413 26.9154 26.8909 27.7392 27.4482C28.9788 28.2866 30.6697 28.3592 31.9726 27.6299C34.2941 26.3304 34.7857 23.2528 32.9888 21.2675C32.5422 20.7741 31.7451 20.293 31.0568 20.1012C30.6511 19.9882 29.5601 19.964 29.1311 20.0584ZM21.0763 23.0569C19.7259 23.4314 18.907 24.7915 19.2234 26.1342C19.4401 27.0535 20.131 27.774 21.0528 28.042C21.4224 28.1494 22.0453 28.1494 22.4149 28.042C23.3367 27.774 24.0276 27.0535 24.2443 26.1342C24.549 24.8412 23.7901 23.5099 22.5181 23.1062C22.1034 22.9746 21.4533 22.9524 21.0763 23.0569ZM37.6086 23.0569C36.2582 23.4314 35.4393 24.7915 35.7557 26.1342C35.9724 27.0535 36.6633 27.774 37.5851 28.042C37.9547 28.1494 38.5776 28.1494 38.9472 28.042C39.869 27.774 40.5599 27.0535 40.7766 26.1342C41.0813 24.8412 40.3224 23.5099 39.0504 23.1062C38.6357 22.9746 37.9856 22.9524 37.6086 23.0569ZM28.9902 29.7339C27.6261 29.936 26.894 30.1991 26.0621 30.7864C25.0679 31.4882 24.3677 32.4041 24.0155 33.4635C23.668 34.5086 23.5791 35.6001 23.6424 38.0438L23.6851 39.6889L23.8147 39.9537C23.9872 40.3063 24.2739 40.5853 24.6458 40.7623L24.9511 40.9077L29.4599 40.922C34.0614 40.9365 34.7506 40.9173 35.3216 40.7584C35.6885 40.6563 35.9987 40.376 36.1804 39.9824L36.317 39.6866L36.3308 37.3804C36.3459 34.8572 36.3223 34.515 36.0798 33.7453C35.4575 31.7697 33.7132 30.175 31.7847 29.8184C31.4409 29.7548 29.2885 29.6898 28.9902 29.7339ZM20.3953 29.8287C19.3842 30.0719 18.473 30.9173 18.1294 31.9309L18 32.3128V35.3656V38.4185L18.106 38.6167C18.2722 38.9278 18.4771 39.1316 18.7664 39.2737L19.0333 39.4048L20.5307 39.42C21.3542 39.4284 22.0783 39.4227 22.1397 39.4073L22.2515 39.3792L22.2431 37.3724C22.2344 35.289 22.2641 34.7707 22.4426 33.8937C22.687 32.6926 23.2735 31.5367 24.0709 30.6843L24.2818 30.4587L24.1703 30.364C23.9651 30.1897 23.3108 29.8931 22.9785 29.8235C22.529 29.7295 20.7933 29.7329 20.3953 29.8287ZM37.0014 29.826C36.6465 29.903 36.1 30.1531 35.8795 30.3395L35.7237 30.4712L35.9108 30.664C36.4814 31.2521 37.0797 32.2504 37.3464 33.0594C37.6848 34.0855 37.7582 34.8641 37.7531 37.3725L37.7491 39.3794L37.8607 39.4074C37.9221 39.4228 38.6355 39.4285 39.446 39.4201C40.8346 39.4056 40.9323 39.3989 41.1368 39.3044C41.4346 39.1667 41.7245 38.8935 41.8745 38.6093L42 38.3715V35.3656V32.3597L41.8637 31.9439C41.5224 30.9025 40.625 30.0697 39.5812 29.8258C39.1744 29.7308 37.4401 29.7309 37.0014 29.826Z" fill="white"/>
</svg>
