<svg width="48" height="48" viewBox="0 0 48 48" fill="none" xmlns="http://www.w3.org/2000/svg">
<circle cx="24" cy="24" r="23.5" fill="#F0F2F5" stroke="#D3D5D8"/>
<path d="M23.8643 16.4922C20.9894 16.4922 18.6504 18.8312 18.6504 21.7061C18.6504 25.3196 23.8695 31.4922 23.8695 31.4922C23.8695 31.4922 29.0783 25.1419 29.0783 21.7061C29.0783 18.8312 26.7394 16.4922 23.8643 16.4922ZM25.4375 23.2328C25.0037 23.6664 24.4341 23.8833 23.8643 23.8833C23.2947 23.8833 22.7249 23.6664 22.2913 23.2328C21.4238 22.3654 21.4238 20.954 22.2913 20.0865C22.7113 19.6663 23.2701 19.4349 23.8643 19.4349C24.4586 19.4349 25.0173 19.6664 25.4375 20.0865C26.3049 20.954 26.3049 22.3654 25.4375 23.2328Z" fill="#5B92EA"/>
</svg>
