<svg width="250" height="66" viewBox="0 0 250 66" fill="none" xmlns="http://www.w3.org/2000/svg">
<path d="M97.4585 14.0039V28.7207H94.0127V22.6889H88.0667V28.7207H84.6211V14.0039H88.0667V19.7041H94.0127V14.0039H97.4585Z" fill="white"/>
<path d="M106.64 28.8459C105.519 28.8459 104.504 28.6387 103.593 28.2242C102.697 27.7958 101.919 27.2291 101.261 26.5245C100.617 25.8059 100.12 25.0044 99.7693 24.12C99.4192 23.2219 99.2441 22.296 99.2441 21.3425C99.2441 20.3613 99.4262 19.4286 99.7903 18.5442C100.169 17.6598 100.687 16.8722 101.345 16.1812C102.017 15.4765 102.809 14.9237 103.719 14.523C104.63 14.1222 105.624 13.9219 106.703 13.9219C107.809 13.9219 108.811 14.1361 109.707 14.5644C110.618 14.979 111.395 15.5456 112.039 16.2641C112.698 16.9827 113.202 17.7911 113.552 18.6894C113.902 19.5737 114.078 20.4787 114.078 21.4046C114.078 22.3858 113.895 23.3186 113.531 24.2029C113.167 25.0874 112.649 25.8818 111.976 26.5866C111.304 27.2775 110.513 27.8303 109.602 28.2449C108.706 28.6455 107.718 28.8459 106.64 28.8459ZM102.753 21.3839C102.753 21.9504 102.837 22.5032 103.005 23.0422C103.173 23.5672 103.418 24.037 103.74 24.4516C104.076 24.8662 104.49 25.1978 104.98 25.4466C105.47 25.6953 106.03 25.8197 106.661 25.8197C107.319 25.8197 107.893 25.6953 108.384 25.4466C108.874 25.1841 109.28 24.8385 109.602 24.4101C109.924 23.9818 110.162 23.5051 110.317 22.98C110.485 22.4411 110.569 21.8951 110.569 21.3425C110.569 20.7758 110.485 20.23 110.317 19.705C110.149 19.1799 109.896 18.7101 109.56 18.2954C109.224 17.8671 108.811 17.5354 108.321 17.3005C107.83 17.0656 107.277 16.9481 106.661 16.9481C106.002 16.9481 105.428 17.0725 104.938 17.3212C104.462 17.57 104.055 17.9085 103.719 18.3369C103.397 18.7515 103.152 19.2281 102.984 19.7671C102.83 20.2922 102.753 20.8311 102.753 21.3839Z" fill="white"/>
<path d="M128.192 24.9482C128.192 25.7911 127.961 26.4959 127.499 27.0624C127.051 27.6152 126.442 28.0297 125.671 28.3061C124.901 28.5825 124.053 28.7207 123.129 28.7207H115.859V14.0039H124.158C124.859 14.0039 125.461 14.1905 125.965 14.5636C126.484 14.9228 126.876 15.3927 127.142 15.9731C127.422 16.5534 127.562 17.1545 127.562 17.7764C127.562 18.4673 127.38 19.1306 127.016 19.7662C126.652 20.3881 126.119 20.858 125.419 21.1758C126.274 21.4245 126.946 21.8667 127.436 22.5023C127.94 23.138 128.192 23.9533 128.192 24.9482ZM124.684 24.2641C124.684 23.9463 124.621 23.6701 124.495 23.4351C124.369 23.1864 124.2 22.9929 123.99 22.8547C123.794 22.7028 123.556 22.6268 123.276 22.6268H119.305V25.8395H123.129C123.423 25.8395 123.682 25.7704 123.906 25.6323C124.144 25.494 124.334 25.3075 124.474 25.0726C124.614 24.8377 124.684 24.5683 124.684 24.2641ZM119.305 16.9058V19.9528H122.688C122.94 19.9528 123.171 19.8975 123.381 19.7869C123.605 19.6765 123.787 19.5107 123.927 19.2896C124.068 19.0546 124.137 18.7645 124.137 18.4189C124.137 18.0873 124.074 17.8109 123.948 17.5898C123.836 17.3687 123.682 17.2029 123.486 17.0924C123.29 16.968 123.066 16.9058 122.814 16.9058H119.305Z" fill="white"/>
<path d="M133.444 14.0039H137.163L142.29 28.7207H138.76L137.604 25.425H132.961L131.827 28.7207H128.297L133.444 14.0039ZM137.037 23.0827L135.293 17.424L133.508 23.0827H137.037Z" fill="white"/>
<path d="M143.15 28.7207L146.68 22.9583C145.798 22.6268 145.111 22.0808 144.621 21.3209C144.131 20.5608 143.886 19.6765 143.886 18.6676C143.886 17.7557 144.096 16.9542 144.516 16.2633C144.95 15.5585 145.538 15.0058 146.281 14.605C147.037 14.2043 147.906 14.0039 148.886 14.0039H155.189V28.7207H151.744V23.3523H150.693C150.609 23.3523 150.518 23.3523 150.42 23.3523C150.336 23.3523 150.252 23.3523 150.168 23.3523L147.037 28.7207H143.15ZM149.327 20.471H151.744V16.8851H149.369C149.019 16.8851 148.69 16.9473 148.382 17.0716C148.088 17.196 147.85 17.3895 147.668 17.652C147.485 17.9007 147.394 18.2393 147.394 18.6676C147.394 19.0823 147.479 19.4277 147.647 19.7041C147.815 19.9666 148.046 20.16 148.34 20.2844C148.648 20.4089 148.977 20.471 149.327 20.471Z" fill="white"/>
<path d="M84.6211 53.3812V38.3711H88.1115V44.1849H89.3107L93.5507 38.3711H97.448L92.0088 45.6225L97.919 53.3812H93.6577L89.2037 47.3348H88.1115V53.3812H84.6211Z" fill="white"/>
<path d="M105.284 53.5105C104.142 53.5105 103.107 53.2992 102.179 52.8763C101.265 52.4394 100.473 51.8616 99.8018 51.1428C99.1451 50.4098 98.6383 49.5924 98.2815 48.6904C97.9246 47.7742 97.7461 46.83 97.7461 45.8575C97.7461 44.8569 97.9317 43.9055 98.3029 43.0035C98.6883 42.1016 99.2164 41.2981 99.8875 40.5935C100.573 39.8747 101.379 39.3109 102.307 38.9022C103.235 38.4934 104.249 38.2891 105.348 38.2891C106.476 38.2891 107.497 38.5076 108.41 38.9445C109.338 39.3673 110.13 39.9452 110.787 40.678C111.458 41.4109 111.972 42.2354 112.329 43.1514C112.686 44.0536 112.864 44.9767 112.864 45.9209C112.864 46.9216 112.679 47.8729 112.307 48.7749C111.936 49.677 111.408 50.4874 110.723 51.2062C110.038 51.9109 109.231 52.4747 108.303 52.8974C107.389 53.3062 106.383 53.5105 105.284 53.5105ZM101.322 45.8997C101.322 46.4777 101.408 47.0414 101.579 47.591C101.75 48.1266 102 48.6059 102.329 49.0286C102.671 49.4515 103.092 49.7897 103.592 50.0434C104.092 50.2972 104.663 50.424 105.305 50.424C105.976 50.424 106.561 50.2972 107.061 50.0434C107.561 49.7756 107.975 49.4233 108.303 48.9864C108.631 48.5495 108.874 48.0633 109.031 47.5277C109.202 46.9779 109.288 46.4213 109.288 45.8575C109.288 45.2796 109.202 44.723 109.031 44.1874C108.86 43.6518 108.603 43.1726 108.26 42.7498C107.918 42.3129 107.497 41.9747 106.997 41.735C106.497 41.4955 105.933 41.3756 105.305 41.3756C104.634 41.3756 104.049 41.5025 103.549 41.7562C103.064 42.0099 102.65 42.3551 102.307 42.792C101.979 43.2149 101.729 43.7012 101.558 44.2508C101.401 44.7864 101.322 45.3361 101.322 45.8997Z" fill="white"/>
<path d="M127.763 38.3711V53.3812H124.252V47.2291H118.192V53.3812H114.68V38.3711H118.192V44.1849H124.252V38.3711H127.763Z" fill="white"/>
<path d="M129.586 45.7519C129.586 44.8357 129.757 43.9407 130.1 43.0669C130.442 42.1791 130.942 41.3756 131.599 40.6568C132.255 39.938 133.055 39.3673 133.997 38.9445C134.939 38.5076 136.01 38.2891 137.209 38.2891C138.637 38.2891 139.872 38.5921 140.914 39.1981C141.97 39.8042 142.755 40.5935 143.269 41.566L140.571 43.4263C140.343 42.8907 140.036 42.475 139.65 42.1791C139.279 41.883 138.865 41.6787 138.408 41.566C137.966 41.4391 137.537 41.3756 137.123 41.3756C136.453 41.3756 135.867 41.5095 135.368 41.7773C134.868 42.031 134.454 42.3763 134.126 42.8132C133.797 43.2501 133.555 43.7363 133.398 44.2719C133.241 44.8075 133.162 45.3431 133.162 45.8787C133.162 46.4707 133.255 47.0414 133.44 47.591C133.626 48.1408 133.89 48.627 134.233 49.0498C134.589 49.4727 135.018 49.8109 135.518 50.0646C136.017 50.3042 136.567 50.424 137.166 50.424C137.595 50.424 138.03 50.3535 138.473 50.2125C138.915 50.0716 139.322 49.8531 139.693 49.5572C140.079 49.2471 140.371 48.8454 140.571 48.3521L143.441 50.0223C143.141 50.7552 142.648 51.3823 141.963 51.9038C141.278 52.4254 140.5 52.8269 139.629 53.1088C138.772 53.3767 137.923 53.5105 137.081 53.5105C135.981 53.5105 134.968 53.292 134.04 52.8551C133.126 52.4042 132.334 51.8123 131.663 51.0793C131.006 50.3323 130.492 49.5008 130.121 48.5847C129.764 47.6545 129.586 46.7102 129.586 45.7519Z" fill="white"/>
<path d="M156.577 41.4155H151.952V53.3812H148.44V41.4155H143.793V38.3711H156.577V41.4155Z" fill="white"/>
<path d="M158.078 53.3812V38.3711H164.567C165.296 38.3711 165.958 38.5191 166.559 38.8152C167.172 39.097 167.7 39.4846 168.143 39.9779C168.586 40.4571 168.927 40.9997 169.171 41.6057C169.414 42.2118 169.534 42.8319 169.534 43.4661C169.534 44.3258 169.327 45.1433 168.914 45.9184C168.514 46.6935 167.95 47.3278 167.223 47.8211C166.508 48.3003 165.658 48.5399 164.673 48.5399H161.59V53.3812H158.078ZM161.59 45.5168H164.46C164.73 45.5168 164.981 45.4393 165.209 45.2843C165.438 45.1293 165.623 44.8966 165.767 44.5865C165.909 44.2765 165.98 43.896 165.98 43.445C165.98 42.9799 165.895 42.5993 165.723 42.3033C165.566 41.9932 165.359 41.7678 165.103 41.6268C164.86 41.486 164.602 41.4155 164.332 41.4155H161.59V45.5168Z" fill="white"/>
<path d="M172.575 53.5081V50.6541H173.925C174.295 50.6541 174.581 50.5836 174.782 50.4427C174.981 50.2875 175.139 50.048 175.253 49.7239L175.444 49.2165L169.6 38.3711H173.475L177.009 45.707L180.134 38.3711H183.84L177.907 51.3517C177.493 52.155 177.015 52.7188 176.473 53.043C175.945 53.353 175.237 53.5081 174.353 53.5081H172.575Z" fill="white"/>
<path d="M184.941 53.3812V38.3711H188.431V44.1849H189.631L193.871 38.3711H197.767L192.329 45.6225L198.24 53.3812H193.978L189.523 47.3348H188.431V53.3812H184.941Z" fill="white"/>
<path d="M211.065 56.2564V53.3812H199.844V38.3711H203.357V50.3368H208.561V38.3711H212.072V50.3368H214.149V56.2564H211.065Z" fill="white"/>
<path d="M216.133 53.3812V38.3711H219.644V48.4553L226.198 38.3711H229.474V53.3812H225.961V43.3605L219.494 53.3812H216.133Z" fill="white"/>
<path d="M231.863 53.3812L235.461 47.504C234.561 47.1658 233.861 46.609 233.363 45.8339C232.862 45.0588 232.612 44.1568 232.612 43.1279C232.612 42.1976 232.827 41.3803 233.255 40.6755C233.698 39.9567 234.297 39.3929 235.054 38.9842C235.824 38.5755 236.71 38.3711 237.709 38.3711H244.133V53.3812H240.622V47.9057H239.55C239.465 47.9057 239.373 47.9057 239.272 47.9057C239.187 47.9057 239.101 47.9057 239.016 47.9057L235.824 53.3812H231.863ZM238.159 44.9671H240.622V41.3098H238.202C237.845 41.3098 237.509 41.3731 237.195 41.5C236.896 41.6268 236.653 41.8242 236.466 42.0919C236.281 42.3456 236.188 42.691 236.188 43.1279C236.188 43.5507 236.275 43.9031 236.446 44.1849C236.616 44.4527 236.852 44.65 237.152 44.7769C237.467 44.9037 237.802 44.9671 238.159 44.9671Z" fill="white"/>
<path fill-rule="evenodd" clip-rule="evenodd" d="M35.5938 7.98047H71.4183V58.9964H36.2468L35.6067 57.7337C32.8737 52.3432 30.4807 49.2815 28.6944 47.5851C27.8042 46.7398 27.0831 46.2508 26.5649 45.9768C26.3062 45.8401 26.1044 45.7603 25.9624 45.7149C25.8879 45.6912 25.8337 45.6782 25.7998 45.6714H24.2442V57.6258H19.6117V28.0061H8.64811V43.4416C7.8437 43.4416 7.03927 43.4416 6.33187 43.4416C5.62447 43.4416 4.82004 43.4416 4.01562 43.4416V9.57948H8.64811V23.4375H19.6117V9.57948H24.2442V41.1028H24.6538L32.9305 27.9442L36.8672 30.3524L29.3557 42.2946C30.1591 42.7877 31.0149 43.4463 31.9078 44.2944C34.0121 46.2927 36.4574 49.4645 39.0948 54.4278H66.7859V12.5491H35.5938V7.98047Z" fill="#5B92EA"/>
</svg>
