<svg width="220" height="58" viewBox="0 0 220 58" fill="none" xmlns="http://www.w3.org/2000/svg">
<path d="M85.7618 12.3086V25.2415H82.7295V19.9409H77.497V25.2415H74.4648V12.3086H77.497V17.3178H82.7295V12.3086H85.7618Z" fill="#0B101D"/>
<path d="M93.8441 25.3495C92.8579 25.3495 91.9644 25.1673 91.1632 24.8031C90.3744 24.4266 89.6902 23.9286 89.1109 23.3094C88.5438 22.6779 88.1063 21.9735 87.7981 21.1964C87.49 20.4071 87.3359 19.5934 87.3359 18.7555C87.3359 17.8933 87.4961 17.0736 87.8166 16.2964C88.1495 15.5192 88.6055 14.827 89.1848 14.2199C89.7765 13.6005 90.4729 13.1148 91.2741 12.7626C92.0752 12.4105 92.9505 12.2344 93.8995 12.2344C94.8733 12.2344 95.7546 12.4226 96.5435 12.799C97.3446 13.1634 98.0288 13.6612 98.5958 14.2927C99.1752 14.9242 99.6188 15.6346 99.927 16.424C100.235 17.2011 100.389 17.9965 100.389 18.8101C100.389 19.6724 100.229 20.4921 99.9085 21.2692C99.588 22.0465 99.132 22.7446 98.5403 23.364C97.9487 23.9712 97.2522 24.457 96.4511 24.8212C95.6622 25.1733 94.7932 25.3495 93.8441 25.3495ZM90.4235 18.7919C90.4235 19.2898 90.4976 19.7756 90.6454 20.2492C90.7934 20.7106 91.0091 21.1235 91.2925 21.4877C91.5884 21.8522 91.952 22.1435 92.3834 22.3622C92.8149 22.5807 93.3079 22.69 93.8626 22.69C94.4418 22.69 94.9473 22.5807 95.3786 22.3622C95.8101 22.1315 96.1676 21.8278 96.4511 21.4513C96.7345 21.0749 96.944 20.656 97.0797 20.1946C97.2276 19.721 97.3016 19.2412 97.3016 18.7555C97.3016 18.2575 97.2276 17.7779 97.0797 17.3165C96.9318 16.855 96.7099 16.4422 96.4141 16.0778C96.1183 15.7014 95.7546 15.4099 95.3232 15.2035C94.8918 14.997 94.4049 14.8938 93.8626 14.8938C93.2833 14.8938 92.7779 15.0031 92.3465 15.2217C91.9274 15.4403 91.5699 15.7378 91.2741 16.1143C90.9906 16.4786 90.7749 16.8975 90.627 17.3711C90.4914 17.8325 90.4235 18.3061 90.4235 18.7919Z" fill="#0B101D"/>
<path d="M112.81 21.9263C112.81 22.6671 112.607 23.2864 112.2 23.7842C111.806 24.27 111.269 24.6343 110.592 24.8772C109.914 25.1201 109.168 25.2415 108.354 25.2415H101.957V12.3086H109.26C109.877 12.3086 110.407 12.4725 110.85 12.8004C111.306 13.1161 111.652 13.529 111.886 14.0391C112.132 14.5491 112.255 15.0773 112.255 15.6238C112.255 16.231 112.095 16.8138 111.775 17.3724C111.454 17.919 110.986 18.3318 110.37 18.6111C111.121 18.8297 111.713 19.2183 112.145 19.7769C112.588 20.3355 112.81 21.052 112.81 21.9263ZM109.723 21.3252C109.723 21.0459 109.667 20.8031 109.556 20.5966C109.445 20.3781 109.297 20.208 109.112 20.0866C108.94 19.953 108.73 19.8863 108.484 19.8863H104.989V22.7096H108.354C108.613 22.7096 108.841 22.6489 109.038 22.5275C109.248 22.406 109.414 22.242 109.538 22.0357C109.661 21.8292 109.723 21.5924 109.723 21.3252ZM104.989 14.8588V17.5364H107.966C108.188 17.5364 108.391 17.4878 108.576 17.3906C108.773 17.2936 108.934 17.1479 109.057 16.9536C109.18 16.7471 109.242 16.4921 109.242 16.1885C109.242 15.897 109.186 15.6542 109.075 15.4599C108.977 15.2656 108.841 15.1198 108.669 15.0227C108.496 14.9134 108.299 14.8588 108.077 14.8588H104.989Z" fill="#0B101D"/>
<path d="M117.432 12.3047H120.705L125.216 25.2376H122.11L121.093 22.3414H117.007L116.009 25.2376H112.902L117.432 12.3047ZM120.594 20.283L119.059 15.3102L117.488 20.283H120.594Z" fill="#0B101D"/>
<path d="M125.973 25.2415L129.079 20.1776C128.302 19.8863 127.698 19.4065 127.267 18.7387C126.835 18.0707 126.62 17.2936 126.62 16.407C126.62 15.6056 126.805 14.9013 127.174 14.2941C127.557 13.6748 128.074 13.189 128.727 12.8369C129.393 12.4847 130.157 12.3086 131.02 12.3086H136.567V25.2415H133.535V20.5238H132.61C132.536 20.5238 132.456 20.5238 132.37 20.5238C132.296 20.5238 132.222 20.5238 132.148 20.5238L129.393 25.2415H125.973ZM131.408 17.9918H133.535V14.8405H131.445C131.137 14.8405 130.848 14.8952 130.576 15.0045C130.318 15.1138 130.108 15.2838 129.948 15.5145C129.788 15.7331 129.707 16.0306 129.707 16.407C129.707 16.7714 129.781 17.0749 129.929 17.3178C130.077 17.5486 130.281 17.7185 130.539 17.8279C130.811 17.9372 131.1 17.9918 131.408 17.9918Z" fill="#0B101D"/>
<path d="M74.4648 46.9095V33.7188H77.5364V38.8279H78.5917L82.3229 33.7188H85.7525L80.9661 40.0912L86.167 46.9095H82.417L78.4975 41.596H77.5364V46.9095H74.4648Z" fill="#0B101D"/>
<path d="M92.6488 47.0249C91.6438 47.0249 90.7329 46.8391 89.9164 46.4675C89.1123 46.0836 88.4151 45.5758 87.8247 44.9441C87.2468 44.3 86.8008 43.5816 86.4867 42.789C86.1727 41.9839 86.0156 41.1542 86.0156 40.2995C86.0156 39.4201 86.179 38.5841 86.5056 37.7915C86.8448 36.9988 87.3095 36.2927 87.9001 35.6735C88.503 35.0418 89.2129 34.5464 90.0294 34.1872C90.846 33.828 91.7379 33.6484 92.7053 33.6484C93.6977 33.6484 94.596 33.8405 95.3999 34.2244C96.2166 34.5959 96.9138 35.1038 97.4916 35.7478C98.0821 36.3919 98.5344 37.1164 98.8485 37.9214C99.1625 38.7142 99.3196 39.5255 99.3196 40.3552C99.3196 41.2346 99.1562 42.0706 98.8296 42.8633C98.503 43.6561 98.0382 44.3682 97.4351 44.9998C96.8322 45.6192 96.1223 46.1146 95.3058 46.4861C94.5017 46.8453 93.616 47.0249 92.6488 47.0249ZM89.1626 40.3366C89.1626 40.8445 89.2379 41.3399 89.3887 41.8229C89.5394 42.2936 89.7593 42.7147 90.0483 43.0862C90.3497 43.4579 90.7204 43.7551 91.16 43.978C91.5997 44.201 92.1022 44.3125 92.6675 44.3125C93.2581 44.3125 93.7731 44.201 94.2128 43.978C94.6526 43.7426 95.0169 43.4331 95.3058 43.0491C95.5947 42.6652 95.8083 42.2379 95.9465 41.7672C96.0972 41.2841 96.1726 40.795 96.1726 40.2995C96.1726 39.7917 96.0972 39.3025 95.9465 38.8318C95.7958 38.3612 95.5695 37.94 95.2681 37.5685C94.9666 37.1846 94.596 36.8873 94.1563 36.6767C93.7166 36.4662 93.2203 36.3609 92.6675 36.3609C92.0771 36.3609 91.5621 36.4723 91.1224 36.6953C90.6953 36.9182 90.331 37.2216 90.0294 37.6056C89.7404 37.9772 89.5207 38.4045 89.3698 38.8875C89.2316 39.3582 89.1626 39.8413 89.1626 40.3366Z" fill="#0B101D"/>
<path d="M112.432 33.7188V46.9095H109.341V41.5031H104.008V46.9095H100.918V33.7188H104.008V38.8279H109.341V33.7188H112.432Z" fill="#0B101D"/>
<path d="M114.035 40.2067C114.035 39.4015 114.186 38.615 114.487 37.8471C114.789 37.0669 115.229 36.3609 115.806 35.7292C116.384 35.0975 117.088 34.5959 117.917 34.2244C118.746 33.8405 119.688 33.6484 120.744 33.6484C122 33.6484 123.087 33.9148 124.004 34.4473C124.933 34.9799 125.624 35.6735 126.076 36.5281L123.702 38.163C123.501 37.6923 123.231 37.327 122.892 37.0669C122.565 36.8068 122.201 36.6272 121.799 36.5281C121.409 36.4167 121.032 36.3609 120.668 36.3609C120.078 36.3609 119.563 36.4785 119.123 36.7139C118.683 36.9368 118.319 37.2402 118.03 37.6242C117.741 38.0081 117.528 38.4354 117.389 38.9061C117.251 39.3768 117.182 39.8475 117.182 40.3181C117.182 40.8383 117.264 41.3399 117.427 41.8229C117.59 42.306 117.823 42.7333 118.124 43.1048C118.438 43.4765 118.815 43.7737 119.255 43.9966C119.695 44.2072 120.178 44.3125 120.706 44.3125C121.083 44.3125 121.466 44.2505 121.855 44.1266C122.245 44.0028 122.603 43.8108 122.929 43.5507C123.269 43.2783 123.526 42.9252 123.702 42.4918L126.227 43.9594C125.963 44.6036 125.53 45.1547 124.927 45.6129C124.324 46.0712 123.639 46.4241 122.873 46.6719C122.119 46.9073 121.372 47.0249 120.631 47.0249C119.663 47.0249 118.771 46.8328 117.955 46.4489C117.151 46.0526 116.453 45.5325 115.863 44.8883C115.285 44.2319 114.833 43.5012 114.506 42.6961C114.192 41.8787 114.035 41.0488 114.035 40.2067Z" fill="#0B101D"/>
<path d="M137.789 36.3941H133.719V46.9095H130.628V36.3941H126.539V33.7188H137.789V36.3941Z" fill="#0B101D"/>
<path d="M139.109 46.9095V33.7188H144.819C145.461 33.7188 146.044 33.8488 146.572 34.109C147.112 34.3567 147.576 34.6973 147.966 35.1308C148.356 35.5519 148.657 36.0287 148.871 36.5612C149.085 37.0939 149.191 37.6388 149.191 38.1962C149.191 38.9517 149.009 39.6701 148.645 40.3512C148.293 41.0324 147.797 41.5898 147.157 42.0233C146.527 42.4444 145.78 42.6549 144.913 42.6549H142.199V46.9095H139.109ZM142.199 39.9983H144.726C144.963 39.9983 145.183 39.9302 145.385 39.794C145.586 39.6577 145.749 39.4533 145.875 39.1808C146 38.9083 146.063 38.574 146.063 38.1776C146.063 37.7689 145.988 37.4345 145.837 37.1743C145.698 36.9018 145.516 36.7038 145.291 36.5798C145.077 36.4561 144.851 36.3941 144.613 36.3941H142.199V39.9983Z" fill="#0B101D"/>
<path d="M151.867 47.0209V44.5129H153.054C153.38 44.5129 153.632 44.4509 153.808 44.3271C153.984 44.1908 154.122 43.9802 154.223 43.6955L154.391 43.2495L149.248 33.7188H152.659L155.768 40.1655L158.518 33.7188H161.779L156.559 45.1259C156.195 45.8319 155.773 46.3273 155.296 46.6122C154.832 46.8847 154.209 47.0209 153.431 47.0209H151.867Z" fill="#0B101D"/>
<path d="M162.748 46.9095V33.7188H165.819V38.8279H166.875L170.606 33.7188H174.035L169.249 40.0912L174.451 46.9095H170.7L166.78 41.596H165.819V46.9095H162.748Z" fill="#0B101D"/>
<path d="M185.738 49.4361V46.9095H175.863V33.7188H178.955V44.2341H183.534V33.7188H186.624V44.2341H188.452V49.4361H185.738Z" fill="#0B101D"/>
<path d="M190.195 46.9095V33.7188H193.285V42.5807L199.052 33.7188H201.936V46.9095H198.844V38.1033L193.154 46.9095H190.195Z" fill="#0B101D"/>
<path d="M204.039 46.9095L207.205 41.7447C206.413 41.4474 205.797 40.9581 205.359 40.277C204.918 39.5958 204.698 38.8031 204.698 37.899C204.698 37.0814 204.887 36.3632 205.263 35.7438C205.653 35.1122 206.181 34.6167 206.846 34.2575C207.525 33.8983 208.305 33.7188 209.184 33.7188H214.837V46.9095H211.747V42.0977H210.803C210.729 42.0977 210.647 42.0977 210.559 42.0977C210.484 42.0977 210.408 42.0977 210.333 42.0977L207.525 46.9095H204.039ZM209.579 39.5152H211.747V36.3012H209.617C209.303 36.3012 209.007 36.3569 208.731 36.4684C208.468 36.5798 208.254 36.7533 208.09 36.9886C207.927 37.2115 207.845 37.515 207.845 37.899C207.845 38.2705 207.921 38.5802 208.072 38.8279C208.222 39.0631 208.43 39.2366 208.693 39.3481C208.97 39.4595 209.265 39.5152 209.579 39.5152Z" fill="#0B101D"/>
<path fill-rule="evenodd" clip-rule="evenodd" d="M31.322 7.01562H62.8476V51.8478H31.8966L31.3334 50.7381C28.9283 46.001 26.8225 43.3104 25.2506 41.8197C24.4672 41.0769 23.8326 40.6471 23.3766 40.4064C23.1489 40.2862 22.9713 40.2161 22.8463 40.1762C22.7808 40.1553 22.7331 40.1439 22.7032 40.1379H21.3343V50.6434H17.2577V24.6139H7.60979V38.1784C6.90191 38.1784 6.19401 38.1784 5.5715 38.1784C4.94899 38.1784 4.24109 38.1784 3.5332 38.1784V8.42081H7.60979V20.5991H17.2577V8.42081H21.3343V36.1231H21.6948L28.9783 24.5595L32.4426 26.6758L25.8324 37.1704C26.5394 37.6038 27.2925 38.1826 28.0784 38.9279C29.9301 40.6839 32.082 43.4713 34.4029 47.833H58.771V11.0304H31.322V7.01562Z" fill="#5B92EA"/>
</svg>
