<svg width="56" height="56" viewBox="0 0 56 56" fill="none" xmlns="http://www.w3.org/2000/svg">
<circle cx="28" cy="28" r="28" fill="#5B92EA"/>
<path fill-rule="evenodd" clip-rule="evenodd" d="M21.1874 22.0309C20.9511 22.0768 20.6181 22.2617 20.4297 22.4518C19.8828 23.0033 19.8612 23.8927 20.3816 24.4344C20.5227 24.5813 27.061 28.961 27.3671 29.1137C27.7649 29.312 28.2126 29.3163 28.6155 29.1257C28.9062 28.9882 35.4308 24.6225 35.5955 24.4553C36.1376 23.905 36.1259 23.0132 35.5691 22.4518C35.3721 22.2531 35.0446 22.0765 34.7837 22.0281C34.5721 21.9888 21.3902 21.9916 21.1874 22.0309ZM20 29.0104C20 31.5421 20.0105 32.7038 20.0344 32.8189C20.1187 33.2243 20.409 33.6119 20.7742 33.8067C21.1596 34.0121 20.6879 33.9995 27.9873 34C32.2695 34.0003 34.6749 33.9894 34.7837 33.9692C35.0428 33.9212 35.3853 33.7378 35.5737 33.5463C35.7565 33.3605 35.9119 33.0711 35.9643 32.8189C36.004 32.6282 36.0147 25.3606 35.9753 25.3781C35.9624 25.3838 34.4513 26.3903 32.6173 27.6148C30.7832 28.8392 29.1822 29.8917 29.0593 29.9536C28.7139 30.1276 28.421 30.1941 27.9994 30.1941C27.5777 30.1941 27.2849 30.1276 26.9395 29.9536C26.8166 29.8917 25.2155 28.8392 23.3815 27.6148C21.5474 26.3903 20.0363 25.3838 20.0234 25.3781C20.0106 25.3723 20 27.0069 20 29.0104Z" fill="white"/>
</svg>
