<svg width="16" height="16" viewBox="0 0 16 16" fill="none" xmlns="http://www.w3.org/2000/svg">
<path fill-rule="evenodd" clip-rule="evenodd" d="M1.75447 2.69548C1.5379 2.73621 1.23264 2.90059 1.05987 3.06956C0.558545 3.55976 0.538781 4.35034 1.01578 4.8319C1.14514 4.96249 7.13864 8.85555 7.41923 8.99123C7.7838 9.16754 8.19427 9.17137 8.5636 9.00193C8.83007 8.8797 14.8109 4.99909 14.9619 4.85043C15.4589 4.36134 15.4481 3.56863 14.9377 3.06956C14.7571 2.89298 14.4569 2.73593 14.2177 2.69292C14.0238 2.65802 1.94037 2.66052 1.75447 2.69548ZM0.666016 8.89945C0.666016 11.1498 0.67564 12.1824 0.697581 12.2848C0.774804 12.6451 1.04093 12.9897 1.37572 13.1628C1.72895 13.3454 1.29658 13.3342 7.98772 13.3346C11.913 13.3349 14.118 13.3252 14.2177 13.3073C14.4552 13.2645 14.7692 13.1016 14.9419 12.9314C15.1095 12.7662 15.2519 12.509 15.3 12.2848C15.3363 12.1152 15.3461 5.65514 15.3101 5.67071C15.2982 5.67579 13.913 6.57048 12.2319 7.65889C10.5507 8.7473 9.08299 9.68283 8.97037 9.73785C8.65374 9.89253 8.38529 9.95158 7.99877 9.95158C7.61226 9.95158 7.34381 9.89253 7.02718 9.73785C6.91456 9.68283 5.44689 8.7473 3.76568 7.65889C2.0845 6.57048 0.699299 5.67579 0.687498 5.67071C0.675697 5.66559 0.666016 7.11856 0.666016 8.89945Z" fill="#0B101D"/>
</svg>
