<svg width="60" height="60" viewBox="0 0 60 60" fill="none" xmlns="http://www.w3.org/2000/svg">
<circle cx="30" cy="30" r="29.5" fill="#F0F2F5" stroke="#D3D5D8"/>
<path fill-rule="evenodd" clip-rule="evenodd" d="M25.074 21.8758C22.3059 22.9138 20.0412 23.7718 20.0412 23.7827C20.0412 23.7936 22.3103 24.6524 25.0838 25.6911L30.1264 27.5798L32.015 26.8719L33.9037 26.164L33.7655 26.1C33.6895 26.0648 32.8563 25.7186 31.914 25.3307C30.9717 24.9428 30.2046 24.6094 30.2094 24.5897C30.2142 24.5701 30.7686 24.3203 31.4412 24.0346L32.6643 23.5152L33.8973 24.0682C34.5755 24.3723 35.4273 24.7533 35.7902 24.9146L36.4501 25.2081L38.3311 24.5053C39.3656 24.1188 40.2121 23.7936 40.212 23.7827C40.2119 23.7674 30.3141 20.0478 30.1463 20C30.1246 19.9938 27.842 20.8379 25.074 21.8758ZM20.01 30.7486L20.0201 36.4481L24.747 38.2206L29.4739 39.993L29.4839 34.3128C29.4894 31.1886 29.4805 28.621 29.4641 28.607C29.4477 28.5929 27.4229 27.8284 24.9645 26.908C22.5061 25.9876 20.3834 25.1928 20.2474 25.1418L20 25.0491L20.01 30.7486ZM38.3542 25.7605L36.4753 26.4647L36.4555 28.0568L36.4357 29.6488L35.1897 30.1171C34.5044 30.3747 33.9395 30.5857 33.9342 30.5859C33.9291 30.5861 33.9202 29.8761 33.9145 29.008L33.9041 27.4297L32.3417 28.0152L30.7792 28.6007L30.7692 34.3003L30.7592 40L31.0066 39.9073C31.1426 39.8563 33.2653 39.0615 35.7237 38.1411C38.1821 37.2207 40.2069 36.4562 40.2233 36.4421C40.2397 36.4281 40.2486 33.8605 40.2431 30.7364L40.2331 25.0563L38.3542 25.7605ZM23.8372 34.6684C24.479 34.9086 25.0179 35.1176 25.0347 35.133C25.0516 35.1484 25.0605 35.456 25.0545 35.8166L25.0436 36.4722L23.7976 36.0055L22.5516 35.5389L22.5408 34.8578C22.5306 34.2192 22.5343 34.1784 22.6001 34.2042C22.6387 34.2194 23.1954 34.4283 23.8372 34.6684Z" fill="#5B92EA"/>
</svg>
