<svg width="60" height="60" viewBox="0 0 60 60" fill="none" xmlns="http://www.w3.org/2000/svg">
<circle cx="30" cy="30" r="29.5" fill="#F0F2F5" stroke="#D3D5D8"/>
<path fill-rule="evenodd" clip-rule="evenodd" d="M22.3572 23.0261C21.5094 23.1263 20.7358 23.6503 20.3147 24.4096C20.0942 24.8071 20.0023 25.1717 20.0011 25.6543L20 26.0739L20.1279 26.202L20.2557 26.33L29.9499 26.3401L39.6439 26.3501L39.7766 26.2607C39.9866 26.1192 40.0152 26.0304 39.9942 25.5868C39.9464 24.5771 39.4006 23.7394 38.5022 23.2969C37.8569 22.9791 38.6349 23.0068 30.1704 23.0005C26.0181 22.9974 22.5022 23.0089 22.3572 23.0261ZM20.2738 28.0297C20.2308 28.0476 20.1516 28.1095 20.0978 28.1674L20 28.2727V31.1935V34.1143L20.0912 34.4077C20.3203 35.1447 20.8069 35.7184 21.4864 36.0527C22.1315 36.37 21.3699 36.3439 29.9943 36.3439C38.6196 36.3439 37.858 36.37 38.5022 36.0523C39.1823 35.7169 39.6695 35.1428 39.8976 34.4077L39.9887 34.1143V31.1911V28.2679L39.8608 28.1399L39.7329 28.0121L30.0425 28.0046C24.7128 28.0006 20.3168 28.0118 20.2738 28.0297ZM25.3892 30.2161C25.5846 30.3376 25.715 30.5149 25.7756 30.7412C25.8695 31.0923 25.6881 31.4741 25.34 31.6582C25.1796 31.743 25.1288 31.7477 24.3737 31.7477C23.7416 31.7477 23.5466 31.7352 23.4312 31.687C22.7624 31.4076 22.7453 30.4882 23.4032 30.1775C23.5439 30.1111 23.6443 30.1047 24.4006 30.114C25.2056 30.1239 25.2479 30.1283 25.3892 30.2161Z" fill="#5B92EA"/>
</svg>
