<svg width="60" height="60" viewBox="0 0 60 60" fill="none" xmlns="http://www.w3.org/2000/svg">
<circle cx="30" cy="30" r="29.5" fill="#F0F2F5" stroke="#D3D5D8"/>
<path fill-rule="evenodd" clip-rule="evenodd" d="M28.5308 20.065C28.2834 20.1683 28.2275 20.3064 27.9233 21.5648C27.7683 22.2058 27.6306 22.748 27.6172 22.7697C27.6038 22.7913 27.5008 22.8393 27.3883 22.8762C27.2759 22.9131 27.0141 23.0181 26.8067 23.1096L26.4296 23.2759L25.4402 22.6828C24.8961 22.3566 24.3948 22.0668 24.3262 22.0386C24.2457 22.0056 24.142 21.9972 24.0334 22.0148C23.8776 22.04 23.7944 22.1128 22.9028 23.0044C22.0112 23.896 21.9384 23.9792 21.9132 24.135C21.8956 24.2436 21.904 24.3473 21.9371 24.4278C21.9652 24.4963 22.2551 24.9976 22.5813 25.5418L23.1744 26.5312L23.008 26.9083C22.9166 27.1157 22.811 27.3788 22.7735 27.493C22.7293 27.628 22.6761 27.7129 22.6216 27.7356C22.5755 27.7548 22.0458 27.8947 21.4446 28.0465C20.8433 28.1982 20.3086 28.3537 20.2562 28.392C20.2038 28.4302 20.1248 28.51 20.0805 28.5693C20.0028 28.6734 20 28.7244 20 30.0379C20 31.3514 20.0028 31.4024 20.0805 31.5065C20.1248 31.5658 20.2038 31.6456 20.2562 31.6839C20.3086 31.7221 20.8433 31.8776 21.4446 32.0294C22.0458 32.1811 22.5755 32.321 22.6216 32.3402C22.6761 32.3629 22.7293 32.4479 22.7735 32.5828C22.811 32.697 22.9166 32.9601 23.008 33.1676L23.1744 33.5447L22.5813 34.5341C22.2551 35.0782 21.9652 35.5795 21.9371 35.6481C21.904 35.7286 21.8956 35.8323 21.9132 35.9409C21.9384 36.0967 22.0112 36.1798 22.9028 37.0714C23.7944 37.963 23.8776 38.0358 24.0334 38.0611C24.142 38.0787 24.2457 38.0702 24.3262 38.0372C24.3948 38.0091 24.8961 37.7192 25.4402 37.393L26.4296 36.7999L26.8067 36.9662C27.0141 37.0577 27.2759 37.1628 27.3883 37.1997C27.5008 37.2366 27.6046 37.2858 27.619 37.3091C27.6335 37.3324 27.7722 37.8586 27.9275 38.4784C28.2337 39.7013 28.2895 39.8336 28.5413 39.9347C28.7583 40.0218 31.1144 40.0218 31.3313 39.9347C31.5832 39.8336 31.6389 39.7013 31.9452 38.4784C32.1004 37.8586 32.2392 37.3324 32.2536 37.3091C32.268 37.2858 32.3719 37.2366 32.4843 37.1997C32.5968 37.1628 32.8586 37.0577 33.066 36.9662L33.4431 36.7999L34.4325 37.393C34.9766 37.7192 35.4779 38.0091 35.5465 38.0372C35.627 38.0702 35.7307 38.0787 35.8393 38.0611C35.9951 38.0358 36.0782 37.963 36.9699 37.0714C37.8614 36.1798 37.9343 36.0967 37.9595 35.9409C37.9771 35.8323 37.9686 35.7286 37.9356 35.6481C37.9075 35.5795 37.6176 35.0782 37.2914 34.5341L36.6983 33.5447L36.8646 33.1676C36.9561 32.9601 37.0617 32.697 37.0991 32.5828C37.1432 32.4485 37.1969 32.3626 37.2511 32.3395C37.2972 32.3199 37.8494 32.1789 38.4782 32.0262C39.7113 31.7268 39.8041 31.6875 39.917 31.4173C39.9942 31.2327 39.9942 28.8432 39.917 28.6586C39.8041 28.3884 39.7113 28.3491 38.4782 28.0496C37.8494 27.8969 37.2972 27.7559 37.2511 27.7363C37.1969 27.7133 37.1432 27.6273 37.0991 27.493C37.0617 27.3788 36.9561 27.1157 36.8646 26.9083L36.6983 26.5312L37.2914 25.5418C37.6176 24.9976 37.9075 24.4963 37.9356 24.4278C37.9686 24.3473 37.9771 24.2436 37.9595 24.135C37.9343 23.9792 37.8614 23.896 36.9699 23.0044C36.0782 22.1128 35.9951 22.04 35.8393 22.0148C35.7307 21.9972 35.627 22.0056 35.5465 22.0386C35.4779 22.0668 34.9766 22.3566 34.4325 22.6828L33.4431 23.2759L33.066 23.1096C32.8586 23.0181 32.5968 22.9131 32.4843 22.8762C32.3719 22.8393 32.2689 22.7913 32.2555 22.7697C32.2421 22.748 32.1043 22.2058 31.9494 21.5648C31.6423 20.2947 31.5897 20.1668 31.3313 20.0631C31.1189 19.9778 28.7357 19.9795 28.5308 20.065ZM30.6586 27.2004C31.707 27.4907 32.5251 28.3251 32.79 29.3742C32.8207 29.4957 32.8442 29.784 32.8442 30.0379C32.8442 30.5171 32.797 30.7707 32.6373 31.1506C32.2768 32.008 31.5124 32.6612 30.6001 32.8915C30.3213 32.9619 29.5514 32.9619 29.2726 32.8915C27.7988 32.5195 26.815 31.0756 27.0426 29.6188C27.2383 28.3668 28.206 27.3743 29.4512 27.1484C29.7062 27.1022 30.4139 27.1326 30.6586 27.2004Z" fill="#5B92EA"/>
</svg>
