<svg width="60" height="60" viewBox="0 0 60 60" fill="none" xmlns="http://www.w3.org/2000/svg">
<circle cx="30" cy="30" r="30" fill="#70A2F1"/>
<path fill-rule="evenodd" clip-rule="evenodd" d="M29.4951 18.0473C29.0748 18.1677 28.8073 18.3519 27.9312 19.1243C27.4408 19.5566 27.0168 19.9101 26.9888 19.9099C26.9608 19.9097 26.2834 19.8587 25.4834 19.7964C23.9641 19.6783 23.7358 19.6834 23.3015 19.8455C22.9536 19.9753 22.5962 20.2405 22.3879 20.5234C22.1492 20.8478 22.1837 20.7592 21.6532 22.4088L21.2195 23.7578L20.0532 24.4445C19.4118 24.8222 18.786 25.222 18.6625 25.333C18.2808 25.6762 18.0012 26.3146 18 26.8455C17.9992 27.2211 18.0654 27.4282 18.6133 28.763L19.1174 29.991L18.6259 31.1794C18.3556 31.833 18.1041 32.4831 18.067 32.624C17.9384 33.1118 18.0124 33.6688 18.2683 34.1388C18.4903 34.5467 18.8841 34.8497 20.2011 35.6261C20.8771 36.0245 21.4388 36.3644 21.4492 36.3813C21.4597 36.3983 21.5963 36.9485 21.7529 37.6041C22.0884 39.0094 22.2258 39.3415 22.6217 39.7034C22.7635 39.8329 22.9998 39.9958 23.1468 40.0654C23.6238 40.2911 23.8415 40.3029 25.3965 40.1879C26.1669 40.131 26.85 40.085 26.9145 40.0858C26.9979 40.0869 27.2625 40.2909 27.8294 40.7912C28.2682 41.1784 28.7327 41.5663 28.8617 41.6533C29.4712 42.0638 30.2696 42.1134 30.9467 41.7828C31.1016 41.7071 31.5528 41.3503 32.0963 40.8735C32.9319 40.1405 33.0031 40.0888 33.1785 40.0878C33.2817 40.0873 33.894 40.1289 34.5392 40.1802C35.1843 40.2316 35.8423 40.2737 36.0013 40.2738C36.7775 40.2744 37.5187 39.7984 37.8477 39.088C37.9246 38.9221 38.1066 38.2796 38.2695 37.5996C38.4272 36.9415 38.5708 36.3899 38.5888 36.3739C38.6067 36.3579 39.1809 36.0108 39.8647 35.6026C41.183 34.8159 41.534 34.5436 41.7561 34.1356C42.0101 33.6688 42.0838 33.1105 41.9556 32.624C41.9185 32.4831 41.6669 31.833 41.3966 31.1794L40.9051 29.991L41.4092 28.763C41.6864 28.0876 41.938 27.4359 41.9682 27.3148C42.1335 26.6518 41.9071 25.8854 41.3967 25.3798C41.2304 25.2151 40.7509 24.8997 39.8595 24.3686L38.564 23.5967L38.2701 22.3752C38.1084 21.7034 37.922 21.0375 37.8559 20.8956C37.6476 20.4482 37.1566 19.9952 36.7039 19.8327C36.2783 19.6798 36.0559 19.6759 34.5475 19.7945C33.7429 19.8578 33.0611 19.9097 33.0323 19.9099C33.0035 19.9101 32.6235 19.5923 32.1877 19.2036C31.284 18.3975 31.1064 18.2635 30.7556 18.1233C30.4436 17.9986 29.8006 17.9598 29.4951 18.0473ZM31.32 22.3702C34.5848 22.9651 37.0324 25.4138 37.6436 28.6969C37.7554 29.2972 37.7554 30.6995 37.6436 31.2997C37.0322 34.5838 34.5967 37.0192 31.3127 37.6307C31.0024 37.6884 30.6328 37.7113 30.0113 37.7113C29.3897 37.7113 29.0202 37.6884 28.7099 37.6307C25.4286 37.0198 22.9898 34.581 22.3789 31.2997C22.2672 30.6995 22.2672 29.2972 22.3789 28.6969C23.0204 25.2513 25.6779 22.7421 29.1514 22.3026C29.6009 22.2457 30.8504 22.2847 31.32 22.3702ZM29.3544 23.6926C28.313 23.8215 27.3133 24.1903 26.4453 24.7658C25.9926 25.066 25.0789 25.9796 24.7788 26.4323C23.4904 28.3756 23.3273 30.792 24.3477 32.8196C24.6669 33.4537 24.9798 33.8824 25.5298 34.439C26.4637 35.384 27.5069 35.9468 28.8382 36.2241C29.3851 36.3379 30.6234 36.3379 31.1956 36.2238C32.4773 35.9685 33.522 35.4047 34.4698 34.4569C35.2341 33.6926 35.7008 32.9491 36.0132 31.9985C36.2586 31.2519 36.3201 30.8509 36.3201 29.9983C36.3201 29.4392 36.297 29.1133 36.237 28.8253C36.0567 27.9596 35.7226 27.1545 35.2438 26.4323C34.9351 25.9668 34.0262 25.0621 33.5538 24.7503C32.8431 24.2811 32.0274 23.9408 31.2283 23.7801C30.8815 23.7104 29.6684 23.6538 29.3544 23.6926ZM33.86 27.2775C34.0682 27.3837 34.2342 27.654 34.2342 27.8869C34.2342 27.9664 34.1934 28.1097 34.1435 28.2055C34.0312 28.4211 29.8102 32.6354 29.6031 32.7387C29.4032 32.8384 29.2006 32.8332 28.9889 32.7229C28.7738 32.6109 25.9668 29.7974 25.8633 29.5901C25.5773 29.017 26.2147 28.3796 26.7878 28.6657C26.8704 28.7069 27.4711 29.2716 28.1227 29.9205L29.3076 31.1004L31.1961 29.2169C32.2348 28.1809 33.148 27.3004 33.2254 27.2601C33.4189 27.1593 33.6403 27.1654 33.86 27.2775Z" fill="white"/>
</svg>
