<svg width="60" height="60" viewBox="0 0 60 60" fill="none" xmlns="http://www.w3.org/2000/svg">
<circle cx="30" cy="30" r="29.5" fill="#F0F2F5" stroke="#D3D5D8"/>
<path fill-rule="evenodd" clip-rule="evenodd" d="M29.5793 20.0394C29.229 20.1398 29.0061 20.2933 28.276 20.9369C27.8674 21.2972 27.514 21.5918 27.4907 21.5916C27.4674 21.5914 26.9028 21.5489 26.2361 21.497C24.9701 21.3986 24.7798 21.4029 24.418 21.5379C24.128 21.6461 23.8302 21.8671 23.6566 22.1029C23.4576 22.3732 23.4864 22.2993 23.0444 23.674L22.6829 24.7982L21.711 25.3704C21.1765 25.6851 20.655 26.0184 20.5521 26.1109C20.234 26.3968 20.001 26.9289 20 27.3713C19.9993 27.6843 20.0545 27.8568 20.5111 28.9692L20.9312 29.9925L20.5216 30.9829C20.2964 31.5275 20.0867 32.0693 20.0558 32.1867C19.9487 32.5932 20.0104 33.0574 20.2236 33.449C20.4086 33.7889 20.7367 34.0415 21.8343 34.6884C22.3976 35.0204 22.8656 35.3037 22.8744 35.3178C22.8831 35.3319 22.9969 35.7904 23.1274 36.3368C23.407 37.5078 23.5215 37.7846 23.8515 38.0861C23.9696 38.1941 24.1665 38.3299 24.289 38.3878C24.6865 38.5759 24.8679 38.5858 26.1637 38.4899C26.8057 38.4425 27.375 38.4041 27.4287 38.4049C27.4982 38.4057 27.7188 38.5758 28.1912 38.9927C28.5568 39.3154 28.9439 39.6386 29.0514 39.7111C29.5593 40.0532 30.2247 40.0945 30.7889 39.819C30.918 39.7559 31.294 39.4586 31.7469 39.0613C32.4432 38.4504 32.5026 38.4073 32.6487 38.4065C32.7347 38.4061 33.245 38.4407 33.7826 38.4835C34.3203 38.5263 34.8686 38.5615 35.0011 38.5615C35.6479 38.562 36.2656 38.1653 36.5397 37.5734C36.6038 37.4351 36.7555 36.8997 36.8913 36.333C37.0227 35.7846 37.1424 35.3249 37.1573 35.3116C37.1722 35.2982 37.6507 35.009 38.2206 34.6689C39.3192 34.0132 39.6116 33.7864 39.7967 33.4463C40.0084 33.0574 40.0698 32.5921 39.963 32.1867C39.9321 32.0693 39.7224 31.5275 39.4972 30.9829L39.0876 29.9925L39.5077 28.9692C39.7387 28.4063 39.9484 27.8632 39.9735 27.7623C40.1113 27.2098 39.9226 26.5711 39.4972 26.1498C39.3587 26.0126 38.9591 25.7497 38.2163 25.3071L37.1367 24.6639L36.8917 23.646C36.757 23.0861 36.6017 22.5313 36.5466 22.413C36.373 22.0401 35.9639 21.6627 35.5866 21.5272C35.2319 21.3999 35.0465 21.3966 33.7896 21.4954C33.1191 21.5481 32.5509 21.5914 32.5269 21.5916C32.5029 21.5918 32.1862 21.3269 31.8231 21.003C31.07 20.3313 30.922 20.2196 30.6297 20.1028C30.3696 19.9988 29.8338 19.9665 29.5793 20.0394ZM31.1 23.6418C33.8207 24.1376 35.8603 26.1782 36.3697 28.9141C36.4628 29.4143 36.4628 30.5829 36.3697 31.0831C35.8602 33.8198 33.8306 35.8494 31.0939 36.3589C30.8353 36.407 30.5274 36.4261 30.0094 36.4261C29.4914 36.4261 29.1835 36.407 28.9249 36.3589C26.1905 35.8498 24.1582 33.8175 23.6491 31.0831C23.556 30.5829 23.556 29.4143 23.6491 28.9141C24.1837 26.0427 26.3983 23.9518 29.2929 23.5855C29.6674 23.5381 30.7087 23.5706 31.1 23.6418ZM29.462 24.7439C28.5941 24.8513 27.761 25.1586 27.0377 25.6382C26.6605 25.8883 25.8991 26.6497 25.649 27.0269C24.5753 28.6463 24.4394 30.66 25.2898 32.3497C25.5558 32.8781 25.8165 33.2353 26.2749 33.6991C27.0531 34.4867 27.9224 34.9557 29.0319 35.1867C29.4876 35.2816 30.5195 35.2815 30.9963 35.1865C32.0644 34.9738 32.935 34.5039 33.7249 33.7141C34.3617 33.0772 34.7507 32.4576 35.011 31.6654C35.2155 31.0433 35.2667 30.7091 35.2667 29.9986C35.2667 29.5326 35.2475 29.2611 35.1975 29.0211C35.0473 28.2997 34.7688 27.6287 34.3698 27.0269C34.1126 26.639 33.3552 25.8851 32.9615 25.6252C32.3693 25.2342 31.6895 24.9507 31.0236 24.8168C30.7346 24.7587 29.7236 24.7115 29.462 24.7439ZM33.2167 27.7313C33.3902 27.8198 33.5285 28.045 33.5285 28.2391C33.5285 28.3053 33.4945 28.4248 33.4529 28.5046C33.3593 28.6842 29.8418 32.1962 29.6692 32.2823C29.5026 32.3653 29.3338 32.361 29.1574 32.2691C28.9781 32.1758 26.639 29.8311 26.5527 29.6584C26.3144 29.1808 26.8456 28.6497 27.3232 28.8881C27.392 28.9224 27.8926 29.393 28.4356 29.9338L29.423 30.917L30.9967 29.3474C31.8623 28.4841 32.6233 27.7503 32.6878 27.7167C32.8491 27.6328 33.0336 27.6378 33.2167 27.7313Z" fill="#5B92EA"/>
</svg>
