<svg width="24" height="24" viewBox="0 0 24 24" fill="none" xmlns="http://www.w3.org/2000/svg">
<path fill-rule="evenodd" clip-rule="evenodd" d="M19.4021 20.429C20.7872 20.1654 22.0282 19.3878 22.877 18.2515C24.3286 16.3082 24.3771 13.6806 22.9985 11.6712C22.7076 11.2473 21.9963 10.5389 21.5778 10.2562C21.0444 9.89608 20.5264 9.65807 19.9004 9.48541C19.5042 9.37614 19.5045 9.38122 19.8452 8.66846C20.3082 7.69982 20.9163 6.7808 21.8984 5.5655C22.1263 5.28347 22.215 5.12681 22.2592 4.92835C22.4197 4.20763 21.8692 3.50121 21.1459 3.5C20.6439 3.4992 19.2831 4.02009 18.2599 4.60472C15.4779 6.1942 13.6958 8.69804 13.0438 11.9332C12.7943 13.1706 12.7138 14.8704 12.8639 15.7304C13.188 17.5865 14.453 19.2567 16.1217 20.0314C16.8082 20.35 17.3231 20.4604 18.223 20.4819C18.7808 20.4951 19.139 20.4791 19.4021 20.429ZM6.70675 20.4015C9.01321 19.9145 10.7706 18.0764 11.1391 15.7657C11.2382 15.144 11.1785 13.9975 11.0165 13.4103C10.4704 11.4316 8.96084 9.9578 6.94704 9.43742L6.7367 9.38303L6.9129 8.9693C7.29739 8.06667 8.04209 6.87864 8.81658 5.9324C9.36766 5.25912 9.48302 5.04069 9.48458 4.6676C9.48593 4.34704 9.40386 4.13469 9.17945 3.87786C8.7948 3.43772 8.34672 3.39299 7.4486 3.70516C6.70921 3.96213 5.50446 4.55074 4.87917 4.9605C3.57623 5.81438 2.46116 6.95154 1.66494 8.23842C0.854643 9.54799 0.288742 11.2706 0.0649757 13.1084C-0.0224476 13.8263 -0.0214443 15.3023 0.0667305 15.7496C0.542753 18.1641 2.31175 19.9932 4.59127 20.4276C5.14825 20.5338 6.13805 20.5216 6.70675 20.4015ZM17.5319 18.8127C16.0073 18.4694 14.7995 17.1801 14.4595 15.5331C14.3193 14.8534 14.4119 13.1573 14.6482 12.0771C15.174 9.67452 16.3904 7.80134 18.2948 6.46204C18.7448 6.1455 19.8392 5.5576 19.7678 5.6707C19.7443 5.70787 19.5504 6.00147 19.3369 6.32319C18.9136 6.961 18.343 8.03035 18.1009 8.63938C17.8298 9.32151 17.9094 9.91882 18.3349 10.3943C18.5964 10.6865 18.8814 10.8444 19.3617 10.9632C20.0834 11.1417 20.7322 11.5312 21.2895 12.1207C22.7136 13.627 22.7753 15.8667 21.4374 17.4887C20.9428 18.0885 20.1552 18.5793 19.3496 18.7901C18.8695 18.9157 18.0353 18.926 17.5319 18.8127ZM4.65546 18.7936C3.21387 18.4232 2.1328 17.306 1.7098 15.7496C1.61822 15.4126 1.60065 15.2162 1.6017 14.5422C1.60555 12.2011 2.26153 10.0413 3.45827 8.42975C4.06477 7.61299 5.10259 6.675 5.96811 6.1614C6.46356 5.86735 6.98214 5.59996 6.98214 5.63855C6.98214 5.65364 6.86177 5.84074 6.71467 6.0543C6.15658 6.86441 5.41548 8.26277 5.20824 8.89686C5.04901 9.38394 5.14935 9.91514 5.48007 10.3355C5.72972 10.6529 5.98213 10.798 6.57717 10.9662C7.76265 11.3014 8.66847 12.0491 9.20168 13.1326C9.70789 14.1612 9.72281 15.4823 9.24033 16.5515C8.73592 17.6691 7.64323 18.5607 6.46091 18.8192C5.98083 18.9241 5.11566 18.9119 4.65546 18.7936Z" fill="#5B92EA"/>
</svg>
