<svg width="64" height="20" viewBox="0 0 64 20" fill="none" xmlns="http://www.w3.org/2000/svg">
<path d="M10 0L12.2451 6.90983H19.5106L13.6327 11.1803L15.8779 18.0902L10 13.8197L4.12215 18.0902L6.36729 11.1803L0.489435 6.90983H7.75486L10 0Z" fill="#5B92EA"/>
<path d="M32 0L34.2451 6.90983H41.5106L35.6327 11.1803L37.8779 18.0902L32 13.8197L26.1221 18.0902L28.3673 11.1803L22.4894 6.90983H29.7549L32 0Z" fill="#5B92EA"/>
<path d="M54 0L56.2451 6.90983H63.5106L57.6327 11.1803L59.8779 18.0902L54 13.8197L48.1221 18.0902L50.3673 11.1803L44.4894 6.90983H51.7549L54 0Z" fill="#5B92EA"/>
</svg>
