<svg width="64" height="64" viewBox="0 0 64 64" fill="none" xmlns="http://www.w3.org/2000/svg">
<path d="M62.2421 21.5399C64.7318 28.7379 64.5724 36.588 61.7926 43.6791C59.0128 50.7703 53.7949 56.6373 47.0767 60.2258C40.3585 63.8143 32.5807 64.8889 25.1412 63.2564C17.7017 61.6239 11.0885 57.3913 6.4901 51.3196C1.89176 45.2478 -0.390118 37.735 0.0546335 30.1315C0.499385 22.528 3.64159 15.3324 8.91647 9.83817C14.1913 4.34392 21.253 0.911285 28.8321 0.157258C36.4111 -0.59677 44.0107 1.37726 50.2647 5.72452L48.7748 7.86776C43.031 3.87509 36.0513 2.06207 29.0905 2.7546C22.1296 3.44712 15.644 6.59976 10.7993 11.6459C5.95472 16.692 3.06882 23.3006 2.66034 30.2839C2.25187 37.2672 4.34762 44.1672 8.57089 49.7437C12.7942 55.3202 18.868 59.2075 25.7007 60.7069C32.5333 62.2062 39.6768 61.2193 45.8469 57.9235C52.0171 54.6277 56.8095 49.2392 59.3625 42.7265C61.9156 36.2138 62.062 29.004 59.7753 22.3931L62.2421 21.5399Z" fill="#5B92EA"/>
<path d="M39.6282 26.6138C39.1332 26.1181 38.3293 26.1185 37.8336 26.6138L29.7566 34.6912L26.1667 31.1013C25.671 30.6056 24.8675 30.6056 24.3718 31.1013C23.8761 31.597 23.8761 32.4006 24.3718 32.8963L28.8589 37.3834C29.1066 37.6311 29.4314 37.7553 29.7562 37.7553C30.0811 37.7553 30.4062 37.6314 30.6539 37.3834L39.6282 28.4087C40.1239 27.9134 40.1239 27.1095 39.6282 26.6138Z" fill="#5B92EA"/>
</svg>
