<svg width="48" height="48" viewBox="0 0 48 48" fill="none" xmlns="http://www.w3.org/2000/svg">
<circle cx="24" cy="24" r="23.5" fill="#F0F2F5" stroke="#D3D5D8"/>
<path fill-rule="evenodd" clip-rule="evenodd" d="M23.449 17.0149C21.094 17.2211 19.0359 18.5426 17.885 20.5877C16.7483 22.6076 16.7039 25.0996 17.7675 27.1877C18.3852 28.4004 19.3849 29.4389 20.5833 30.1128C22.1199 30.9769 23.9828 31.2239 25.7028 30.7917C26.9182 30.4862 27.9583 29.9067 28.8631 29.0306C29.9028 28.0239 30.5797 26.7884 30.8665 25.3741C31.0593 24.4233 31.0427 23.3587 30.8204 22.4177C30.1416 19.5449 27.764 17.4073 24.8466 17.0468C24.4786 17.0014 23.7849 16.9855 23.449 17.0149ZM24.3408 19.6422C24.4009 19.6828 24.4867 19.7687 24.5316 19.8329L24.6132 19.9498L24.6213 21.8322L24.6294 23.7147L25.5501 24.6409C26.5552 25.6521 26.5558 25.6529 26.5328 25.9705C26.5181 26.1737 26.4338 26.3177 26.2575 26.4408C26.155 26.5125 26.1128 26.5224 25.9117 26.5224C25.7112 26.5224 25.6682 26.5123 25.5659 26.4414C25.3531 26.2939 23.4704 24.3809 23.4206 24.2616C23.3804 24.1655 23.3744 23.8821 23.3744 22.0894C23.3744 19.8302 23.3673 19.9218 23.5557 19.7334C23.7012 19.5879 23.8064 19.5497 24.0344 19.5597C24.1854 19.5663 24.2573 19.5856 24.3408 19.6422Z" fill="#5B92EA"/>
</svg>
