<svg width="20" height="20" viewBox="0 0 20 20" fill="none" xmlns="http://www.w3.org/2000/svg">
<path d="M9.99986 0.800781C4.92706 0.800781 0.799864 4.92798 0.799864 10.0008C0.799864 11.5848 1.20906 13.1424 1.98506 14.5168L0.814664 18.6928C0.776264 18.83 0.813464 18.9772 0.912664 19.0792C0.989064 19.158 1.09306 19.2008 1.19986 19.2008C1.23186 19.2008 1.26426 19.1968 1.29586 19.1892L5.65426 18.1096C6.98506 18.824 8.48386 19.2008 9.99986 19.2008C15.0727 19.2008 19.1999 15.0736 19.1999 10.0008C19.1999 4.92798 15.0727 0.800781 9.99986 0.800781ZM14.6279 13.2472C14.4311 13.792 13.4871 14.2892 13.0335 14.356C12.6263 14.4156 12.1111 14.4412 11.5455 14.2636C11.2027 14.1556 10.7627 14.0124 10.1991 13.772C7.82986 12.7616 6.28266 10.406 6.16426 10.2504C6.04626 10.0948 5.19986 8.98598 5.19986 7.83838C5.19986 6.69078 5.80986 6.12638 6.02666 5.89278C6.24346 5.65918 6.49906 5.60078 6.65666 5.60078C6.81426 5.60078 6.97146 5.60278 7.10946 5.60918C7.25466 5.61638 7.44947 5.55438 7.64107 6.00958C7.83786 6.47678 8.31027 7.62438 8.36867 7.74158C8.42787 7.85838 8.46706 7.99478 8.38866 8.15038C8.31027 8.30598 8.27106 8.40318 8.15266 8.53958C8.03427 8.67598 7.90466 8.84358 7.79826 8.94838C7.67986 9.06478 7.55706 9.19078 7.69466 9.42438C7.83226 9.65798 8.30626 10.4216 9.00867 11.04C9.91066 11.8344 10.6719 12.0808 10.9079 12.1976C11.1439 12.3144 11.2819 12.2948 11.4195 12.1392C11.5571 11.9832 12.0099 11.458 12.1671 11.2248C12.3243 10.9916 12.4819 11.03 12.6987 11.108C12.9155 11.1856 14.0767 11.7496 14.3127 11.8664C14.5487 11.9832 14.7063 12.0416 14.7655 12.1388C14.8247 12.2356 14.8247 12.7028 14.6279 13.2472Z" fill="#0DC143"/>
</svg>
