<svg width="46" height="46" viewBox="0 0 46 46" fill="none" xmlns="http://www.w3.org/2000/svg">
<circle cx="23" cy="23" r="23" fill="#0DC143"/>
<path d="M23.0008 13.8008C17.928 13.8008 13.8008 17.928 13.8008 23.0008C13.8008 24.5848 14.21 26.1424 14.986 27.5168L13.8156 31.6928C13.7772 31.83 13.8144 31.9772 13.9136 32.0792C13.99 32.158 14.094 32.2008 14.2008 32.2008C14.2328 32.2008 14.2652 32.1968 14.2968 32.1892L18.6552 31.1096C19.986 31.824 21.4848 32.2008 23.0008 32.2008C28.0736 32.2008 32.2008 28.0736 32.2008 23.0008C32.2008 17.928 28.0736 13.8008 23.0008 13.8008ZM27.6288 26.2472C27.432 26.792 26.488 27.2892 26.0344 27.356C25.6272 27.4156 25.112 27.4412 24.5464 27.2636C24.2036 27.1556 23.7636 27.0124 23.2 26.772C20.8308 25.7616 19.2836 23.406 19.1652 23.2504C19.0472 23.0948 18.2008 21.986 18.2008 20.8384C18.2008 19.6908 18.8108 19.1264 19.0276 18.8928C19.2444 18.6592 19.5 18.6008 19.6576 18.6008C19.8152 18.6008 19.9724 18.6028 20.1104 18.6092C20.2556 18.6164 20.4504 18.5544 20.642 19.0096C20.8388 19.4768 21.3112 20.6244 21.3696 20.7416C21.4288 20.8584 21.468 20.9948 21.3896 21.1504C21.3112 21.306 21.272 21.4032 21.1536 21.5396C21.0352 21.676 20.9056 21.8436 20.7992 21.9484C20.6808 22.0648 20.558 22.1908 20.6956 22.4244C20.8332 22.658 21.3072 23.4216 22.0096 24.04C22.9116 24.8344 23.6728 25.0808 23.9088 25.1976C24.1448 25.3144 24.2828 25.2948 24.4204 25.1392C24.558 24.9832 25.0108 24.458 25.168 24.2248C25.3252 23.9916 25.4828 24.03 25.6996 24.108C25.9164 24.1856 27.0776 24.7496 27.3136 24.8664C27.5496 24.9832 27.7072 25.0416 27.7664 25.1388C27.8256 25.2356 27.8256 25.7028 27.6288 26.2472Z" fill="white"/>
</svg>
