<svg width="95" height="36" viewBox="0 0 95 36" fill="none" xmlns="http://www.w3.org/2000/svg">
<g clip-path="url(#clip0_157_4075)">
<path d="M9.49345 19.6191L4.06369 31.5999H0.102539L6.06639 18.7882C3.26251 17.389 1.39326 14.8529 1.39326 10.1742C1.39326 3.61538 5.62136 0.335938 10.6506 0.335938H15.7688V31.5999H12.3419V19.6191H9.49345ZM12.3419 3.17812H10.517C7.75767 3.17812 5.08724 4.97085 5.08724 10.1742C5.08724 15.2026 7.53515 16.8204 10.517 16.8204H12.3419V3.17812Z" fill="#FF0000"/>
<path d="M32.2809 9.56381V31.6017H28.8539V21.7197H23.6912V31.6017H20.2197V9.56381H23.6912V18.9211H28.8539V9.56381H32.2809ZM50.128 35.9306H47.0126V31.6017H37.3991V35.9306H34.2836V28.8032H35.6634C37.7107 24.1246 37.9332 17.3033 37.9332 11.444V9.56381H48.3478V28.8032H50.128V35.9306ZM44.9208 12.3186H41.0487V12.7121C41.0487 17.347 40.8262 24.1246 38.9569 28.8032H44.9208V12.3186ZM59.697 31.9077C55.0683 31.9077 52.2199 28.2785 52.2199 21.5012C52.2199 14.4175 54.2228 9.25781 58.985 9.25781C62.7235 9.25781 65.1714 12.0125 65.1714 19.4897V21.3699H55.8249C55.8249 26.3546 57.249 28.9783 60.0084 28.9783C61.9667 28.9783 63.5245 28.1038 64.4146 27.4915L65.2159 30.115C63.6348 31.3071 61.6898 31.9389 59.697 31.9077ZM55.8694 18.5714H61.6107C61.6107 14.8109 60.9876 12.0563 58.985 12.0563C56.8485 12.0563 56.092 14.6361 55.8694 18.5714ZM72.2033 20.6267V31.6017H68.7318V9.56381H72.2033V19.752L77.5884 9.56381H81.1046L75.5413 19.927L81.9056 31.6017H78.1226L72.2033 20.6267ZM82.3506 20.583C82.3506 13.6741 85.0657 9.25781 90.3175 9.25781C92.3201 9.25781 93.4774 9.78256 94.4565 10.3947L93.9669 13.6303C93.0323 12.8432 91.6972 12.1 90.2729 12.1C87.7805 12.1 86.0003 14.8547 86.0003 20.4079C86.0003 25.9173 87.3355 29.0655 90.1394 29.0655C91.5267 29.0838 92.8728 28.6015 93.9224 27.71L94.7234 30.2462C93.4354 31.3603 91.7657 31.9539 90.0503 31.9077C85.2436 31.9077 82.3506 28.1038 82.3506 20.583Z" fill="black"/>
</g>
<defs>
<clipPath id="clip0_157_4075">
<rect width="95" height="36" fill="white"/>
</clipPath>
</defs>
</svg>
